<svg xmlns="http://www.w3.org/2000/svg" xmlns:xlink="http://www.w3.org/1999/xlink" width="100" zoomAndPan="magnify" viewBox="0 0 75 74.999997" height="100" preserveAspectRatio="xMidYMid meet" version="1.2"><defs><clipPath id="0af50bd8c1"><path d="M 45.09375 30.886719 L 48.84375 30.886719 L 48.84375 34.636719 L 45.09375 34.636719 Z M 45.09375 30.886719 "/></clipPath><clipPath id="cd8729ad9a"><path d="M 0.445312 0.445312 L 74.695312 0.445312 L 74.695312 74.695312 L 0.445312 74.695312 Z M 0.445312 0.445312 "/></clipPath></defs><g id="64bcd46869"><g clip-rule="nonzero" clip-path="url(#0af50bd8c1)"><path style=" stroke:none;fill-rule:nonzero;fill:#dadada;fill-opacity:1;" d="M 45.09375 30.886719 L 48.84375 30.886719 L 48.84375 34.636719 L 45.09375 34.636719 Z M 45.09375 30.886719 "/></g><g clip-rule="nonzero" clip-path="url(#cd8729ad9a)"><path style=" stroke:none;fill-rule:nonzero;fill:#0a0a0a;fill-opacity:1;" d="M 37.496094 0.445312 C 17.03125 0.445312 0.445312 17.03125 0.445312 37.496094 C 0.445312 57.957031 17.03125 74.542969 37.496094 74.542969 C 57.957031 74.542969 74.542969 57.957031 74.542969 37.496094 C 74.542969 17.03125 57.957031 0.445312 37.496094 0.445312 Z M 34.875 54.933594 L 22.675781 42.734375 C 21.230469 41.285156 21.230469 38.941406 22.675781 37.496094 C 24.121094 36.050781 26.46875 36.050781 27.914062 37.496094 L 33.789062 43.371094 L 33.789062 22.675781 C 33.789062 20.628906 35.449219 18.96875 37.496094 18.96875 C 39.539062 18.96875 41.199219 20.628906 41.199219 22.675781 L 41.199219 43.371094 L 47.074219 37.496094 C 48.519531 36.050781 50.871094 36.050781 52.3125 37.496094 C 53.757812 38.941406 53.757812 41.289062 52.3125 42.734375 L 40.113281 54.933594 C 38.667969 56.378906 36.320312 56.378906 34.875 54.933594 Z M 34.875 54.933594 "/></g></g></svg>