<svg xmlns="http://www.w3.org/2000/svg" xmlns:xlink="http://www.w3.org/1999/xlink" width="100" zoomAndPan="magnify" viewBox="0 0 75 74.999997" height="100" preserveAspectRatio="xMidYMid meet" version="1.2"><defs><clipPath id="4f8f94fe1f"><path d="M 0.972656 6.085938 L 73.722656 6.085938 L 73.722656 69 L 0.972656 69 Z M 0.972656 6.085938 "/></clipPath></defs><g id="0453c769f2"><g clip-rule="nonzero" clip-path="url(#4f8f94fe1f)"><path style=" stroke:none;fill-rule:evenodd;fill:#ece8e1;fill-opacity:1;" d="M 5.15625 6.121094 L 69.535156 6.121094 C 71.839844 6.121094 73.722656 8.003906 73.722656 10.308594 L 73.722656 16.425781 L 0.972656 16.425781 L 0.972656 10.308594 C 0.972656 8.003906 2.855469 6.121094 5.15625 6.121094 Z M 73.722656 19.382812 L 73.722656 64.425781 C 73.722656 66.730469 71.839844 68.613281 69.535156 68.613281 L 5.15625 68.613281 C 2.855469 68.613281 0.972656 66.730469 0.972656 64.425781 L 0.972656 19.382812 Z M 8.457031 9.933594 C 7.570312 9.933594 6.847656 10.652344 6.847656 11.542969 C 6.847656 12.429688 7.570312 13.148438 8.457031 13.148438 C 9.34375 13.148438 10.066406 12.429688 10.066406 11.542969 C 10.066406 10.652344 9.34375 9.933594 8.457031 9.933594 Z M 21.210938 9.933594 C 20.324219 9.933594 19.601562 10.652344 19.601562 11.542969 C 19.601562 12.429688 20.324219 13.148438 21.210938 13.148438 C 22.097656 13.148438 22.820312 12.429688 22.820312 11.542969 C 22.820312 10.652344 22.097656 9.933594 21.210938 9.933594 Z M 14.835938 9.933594 C 13.945312 9.933594 13.226562 10.652344 13.226562 11.542969 C 13.226562 12.429688 13.945312 13.148438 14.835938 13.148438 C 15.722656 13.148438 16.441406 12.429688 16.441406 11.542969 C 16.441406 10.652344 15.722656 9.933594 14.835938 9.933594 Z M 56.386719 26.472656 C 55.570312 26.472656 54.90625 27.136719 54.90625 27.949219 L 54.90625 56.949219 C 54.90625 57.761719 55.570312 58.429688 56.386719 58.429688 L 64.074219 58.429688 C 64.890625 58.429688 65.554688 57.761719 65.554688 56.949219 L 65.554688 27.949219 C 65.554688 27.136719 64.890625 26.472656 64.074219 26.472656 Z M 10.617188 26.472656 C 9.804688 26.472656 9.140625 27.136719 9.140625 27.949219 L 9.140625 40.972656 C 9.140625 41.785156 9.804688 42.449219 10.617188 42.449219 L 23.320312 42.449219 C 24.132812 42.449219 24.796875 41.785156 24.796875 40.972656 L 24.796875 27.949219 C 24.796875 27.136719 24.132812 26.472656 23.320312 26.472656 Z M 30.890625 36.679688 L 47.234375 36.679688 C 48.050781 36.679688 48.714844 36.015625 48.714844 35.199219 C 48.714844 34.382812 48.050781 33.722656 47.234375 33.722656 L 30.890625 33.722656 C 30.074219 33.722656 29.414062 34.382812 29.414062 35.199219 C 29.414062 36.015625 30.074219 36.679688 30.890625 36.679688 Z M 30.890625 43.929688 L 47.234375 43.929688 C 48.050781 43.929688 48.714844 43.265625 48.714844 42.449219 C 48.714844 41.632812 48.050781 40.972656 47.234375 40.972656 L 30.890625 40.972656 C 30.074219 40.972656 29.414062 41.632812 29.414062 42.449219 C 29.414062 43.265625 30.074219 43.929688 30.890625 43.929688 Z M 10.714844 51.179688 L 47.234375 51.179688 C 48.050781 51.179688 48.714844 50.515625 48.714844 49.699219 C 48.714844 48.882812 48.050781 48.222656 47.234375 48.222656 L 10.714844 48.222656 C 9.894531 48.222656 9.234375 48.882812 9.234375 49.699219 C 9.234375 50.515625 9.894531 51.179688 10.714844 51.179688 Z M 30.890625 29.429688 L 47.234375 29.429688 C 48.050781 29.429688 48.714844 28.765625 48.714844 27.949219 C 48.714844 27.132812 48.050781 26.472656 47.234375 26.472656 L 30.890625 26.472656 C 30.074219 26.472656 29.414062 27.132812 29.414062 27.949219 C 29.414062 28.765625 30.074219 29.429688 30.890625 29.429688 Z M 10.714844 58.429688 L 47.234375 58.429688 C 48.050781 58.429688 48.714844 57.765625 48.714844 56.949219 C 48.714844 56.132812 48.050781 55.46875 47.234375 55.46875 L 10.714844 55.46875 C 9.894531 55.46875 9.234375 56.132812 9.234375 56.949219 C 9.234375 57.765625 9.894531 58.429688 10.714844 58.429688 Z M 10.714844 58.429688 "/></g></g></svg>