<svg xmlns="http://www.w3.org/2000/svg" xmlns:xlink="http://www.w3.org/1999/xlink" width="100" zoomAndPan="magnify" viewBox="0 0 75 74.999997" height="100" preserveAspectRatio="xMidYMid meet" version="1.2"><defs><clipPath id="b8b8243cc3"><path d="M 1.273438 2 L 74 2 L 74 73.535156 L 1.273438 73.535156 Z M 1.273438 2 "/></clipPath></defs><g id="c5176c1fd3"><g clip-rule="nonzero" clip-path="url(#b8b8243cc3)"><path style=" stroke:none;fill-rule:nonzero;fill:#ece8e1;fill-opacity:1;" d="M 45.3125 37.777344 L 71.589844 11.5 C 73.742188 9.347656 73.742188 5.855469 71.589844 3.703125 C 69.4375 1.550781 65.945312 1.550781 63.792969 3.703125 L 37.515625 29.980469 L 11.238281 3.703125 C 9.085938 1.550781 5.59375 1.550781 3.441406 3.703125 C 1.289062 5.855469 1.289062 9.347656 3.441406 11.5 L 29.71875 37.777344 L 3.441406 64.054688 C 1.289062 66.207031 1.289062 69.699219 3.441406 71.851562 C 4.515625 72.925781 5.929688 73.464844 7.339844 73.464844 C 8.75 73.464844 10.160156 72.925781 11.238281 71.851562 L 37.515625 45.574219 L 63.792969 71.851562 C 64.871094 72.925781 66.28125 73.464844 67.691406 73.464844 C 69.101562 73.464844 70.511719 72.925781 71.589844 71.851562 C 73.742188 69.699219 73.742188 66.207031 71.589844 64.054688 Z M 45.3125 37.777344 "/></g></g></svg>