<svg xmlns="http://www.w3.org/2000/svg" xmlns:xlink="http://www.w3.org/1999/xlink" width="100" zoomAndPan="magnify" viewBox="0 0 75 74.999997" height="100" preserveAspectRatio="xMidYMid meet" version="1.2"><defs><clipPath id="8c619adc19"><path d="M 0.84375 11.933594 L 74 11.933594 L 74 62.933594 L 0.84375 62.933594 Z M 0.84375 11.933594 "/></clipPath></defs><g id="6e915460d0"><g clip-rule="nonzero" clip-path="url(#8c619adc19)"><path style=" stroke:none;fill-rule:nonzero;fill:#dadada;fill-opacity:1;" d="M 64.625 11.933594 L 10.191406 11.933594 C 5.042969 11.933594 0.851562 16.125 0.851562 21.273438 L 0.851562 53.597656 C 0.851562 58.746094 5.042969 62.9375 10.191406 62.9375 L 64.625 62.9375 C 69.773438 62.9375 73.960938 58.746094 73.960938 53.597656 L 73.960938 21.273438 C 73.960938 16.125 69.773438 11.933594 64.625 11.933594 Z M 64.625 17.027344 C 64.75 17.027344 64.859375 17.089844 64.984375 17.101562 L 40.039062 36.828125 C 38.492188 38.054688 36.328125 38.054688 34.773438 36.828125 L 9.832031 17.101562 C 9.957031 17.089844 10.0625 17.027344 10.191406 17.027344 Z M 68.867188 53.597656 C 68.867188 55.941406 66.964844 57.84375 64.625 57.84375 L 10.191406 57.84375 C 7.851562 57.84375 5.945312 55.941406 5.945312 53.597656 L 5.945312 21.273438 C 5.945312 21.042969 6.042969 20.84375 6.078125 20.625 L 31.613281 40.824219 C 33.320312 42.171875 35.363281 42.847656 37.40625 42.847656 C 39.453125 42.847656 41.496094 42.171875 43.199219 40.824219 L 68.738281 20.625 C 68.773438 20.84375 68.867188 21.042969 68.867188 21.273438 Z M 68.867188 53.597656 "/></g></g></svg>