<svg xmlns="http://www.w3.org/2000/svg" xmlns:xlink="http://www.w3.org/1999/xlink" width="100" zoomAndPan="magnify" viewBox="0 0 75 74.999997" height="100" preserveAspectRatio="xMidYMid meet" version="1.2"><defs><clipPath id="afab9b8c84"><path d="M 1 1.019531 L 74 1.019531 L 74 73 L 1 73 Z M 1 1.019531 "/></clipPath></defs><g id="6fb081cf33"><g clip-rule="nonzero" clip-path="url(#afab9b8c84)"><path style=" stroke:none;fill-rule:nonzero;fill:#0a0a0a;fill-opacity:1;" d="M 16.988281 16.503906 C 17.238281 16.226562 17.457031 15.925781 17.644531 15.609375 C 17.835938 15.289062 17.996094 14.953125 18.121094 14.601562 C 18.25 14.253906 18.339844 13.894531 18.398438 13.527344 C 18.453125 13.160156 18.476562 12.789062 18.464844 12.417969 C 18.449219 12.042969 18.402344 11.675781 18.316406 11.316406 C 18.234375 10.953125 18.117188 10.601562 17.964844 10.261719 C 17.816406 9.921875 17.632812 9.597656 17.417969 9.292969 C 17.207031 8.988281 16.964844 8.707031 16.699219 8.445312 L 12.738281 4.484375 C 12.457031 4.199219 12.277344 3.863281 12.199219 3.46875 C 12.121094 3.078125 12.160156 2.695312 12.3125 2.328125 C 12.464844 1.957031 12.707031 1.664062 13.039062 1.441406 C 13.371094 1.21875 13.738281 1.105469 14.136719 1.105469 C 14.660156 1.09375 15.183594 1.113281 15.703125 1.167969 C 16.226562 1.21875 16.742188 1.304688 17.253906 1.417969 C 17.765625 1.53125 18.265625 1.675781 18.761719 1.851562 C 19.253906 2.027344 19.734375 2.234375 20.203125 2.464844 C 20.671875 2.699219 21.125 2.960938 21.5625 3.25 C 22 3.535156 22.417969 3.851562 22.816406 4.1875 C 23.21875 4.527344 23.59375 4.890625 23.953125 5.273438 C 24.308594 5.65625 24.640625 6.0625 24.945312 6.484375 C 25.253906 6.910156 25.535156 7.351562 25.789062 7.808594 C 26.042969 8.265625 26.265625 8.738281 26.464844 9.222656 C 26.660156 9.710938 26.828125 10.203125 26.964844 10.710938 C 27.101562 11.214844 27.210938 11.726562 27.285156 12.246094 C 27.359375 12.765625 27.40625 13.285156 27.417969 13.808594 C 27.429688 14.332031 27.410156 14.855469 27.359375 15.375 C 27.308594 15.898438 27.230469 16.414062 27.117188 16.925781 C 27.003906 17.4375 26.859375 17.9375 26.6875 18.433594 L 37.273438 29.019531 L 32.292969 34 L 30.492188 32.199219 C 30.292969 32.003906 30.078125 31.828125 29.847656 31.671875 C 29.617188 31.519531 29.371094 31.386719 29.113281 31.28125 C 28.855469 31.175781 28.589844 31.09375 28.316406 31.039062 C 28.042969 30.984375 27.769531 30.957031 27.488281 30.957031 C 27.210938 30.957031 26.933594 30.984375 26.664062 31.039062 C 26.390625 31.09375 26.125 31.175781 25.867188 31.28125 C 25.609375 31.386719 25.363281 31.519531 25.132812 31.675781 C 24.902344 31.828125 24.6875 32.003906 24.488281 32.203125 L 24.457031 32.234375 L 18.679688 26.457031 C 18.183594 26.628906 17.679688 26.773438 17.164062 26.886719 C 16.648438 27 16.132812 27.082031 15.605469 27.128906 C 15.082031 27.179688 14.558594 27.199219 14.03125 27.183594 C 13.507812 27.171875 12.984375 27.125 12.460938 27.050781 C 11.941406 26.972656 11.425781 26.863281 10.921875 26.722656 C 10.414062 26.585938 9.914062 26.414062 9.429688 26.214844 C 8.941406 26.015625 8.46875 25.789062 8.007812 25.53125 C 7.550781 25.273438 7.109375 24.992188 6.683594 24.679688 C 6.257812 24.371094 5.851562 24.035156 5.46875 23.675781 C 5.085938 23.316406 4.722656 22.933594 4.386719 22.53125 C 4.046875 22.128906 3.734375 21.703125 3.449219 21.265625 C 3.160156 20.824219 2.902344 20.367188 2.667969 19.894531 C 2.4375 19.421875 2.234375 18.9375 2.0625 18.4375 C 1.890625 17.941406 1.746094 17.4375 1.636719 16.921875 C 1.523438 16.40625 1.445312 15.886719 1.394531 15.363281 C 1.347656 14.839844 1.332031 14.316406 1.34375 13.789062 C 1.363281 13.398438 1.488281 13.042969 1.71875 12.726562 C 1.949219 12.410156 2.246094 12.183594 2.613281 12.042969 C 2.976562 11.902344 3.351562 11.875 3.734375 11.957031 C 4.117188 12.039062 4.445312 12.21875 4.722656 12.496094 L 8.851562 16.628906 C 9.121094 16.898438 9.414062 17.136719 9.730469 17.34375 C 10.046875 17.554688 10.378906 17.730469 10.730469 17.875 C 11.082031 18.015625 11.445312 18.121094 11.820312 18.191406 C 12.191406 18.261719 12.566406 18.292969 12.949219 18.289062 C 13.328125 18.28125 13.703125 18.238281 14.074219 18.15625 C 14.441406 18.078125 14.800781 17.960938 15.148438 17.804688 C 15.496094 17.652344 15.824219 17.464844 16.132812 17.246094 C 16.445312 17.027344 16.730469 16.78125 16.988281 16.503906 Z M 72.808594 64.21875 C 72.605469 64.96875 72.335938 65.691406 71.992188 66.386719 C 71.652344 67.082031 71.242188 67.738281 70.773438 68.355469 C 70.300781 68.972656 69.773438 69.535156 69.191406 70.046875 C 68.605469 70.558594 67.980469 71.007812 67.308594 71.398438 C 66.636719 71.785156 65.933594 72.105469 65.199219 72.355469 C 64.464844 72.605469 63.710938 72.78125 62.941406 72.882812 C 62.171875 72.984375 61.402344 73.007812 60.628906 72.957031 C 59.851562 72.90625 59.089844 72.78125 58.34375 72.582031 C 57.59375 72.378906 56.871094 72.105469 56.175781 71.765625 C 55.476562 71.421875 54.824219 71.011719 54.207031 70.539062 C 53.59375 70.066406 53.027344 69.539062 52.515625 68.957031 C 52.007812 68.371094 51.554688 67.746094 51.167969 67.074219 C 50.78125 66.402344 50.464844 65.699219 50.214844 64.960938 C 49.964844 64.226562 49.789062 63.476562 49.691406 62.707031 C 49.589844 61.9375 49.566406 61.164062 49.617188 60.390625 C 49.667969 59.617188 49.792969 58.855469 49.996094 58.105469 C 50.019531 58.019531 50.050781 57.9375 50.078125 57.851562 L 42.078125 49.851562 L 42.109375 49.820312 C 42.304688 49.625 42.480469 49.410156 42.636719 49.179688 C 42.789062 48.945312 42.921875 48.703125 43.027344 48.445312 C 43.132812 48.1875 43.214844 47.921875 43.269531 47.648438 C 43.324219 47.375 43.351562 47.097656 43.351562 46.820312 C 43.351562 46.542969 43.324219 46.265625 43.269531 45.992188 C 43.214844 45.71875 43.132812 45.453125 43.027344 45.195312 C 42.921875 44.9375 42.789062 44.691406 42.636719 44.460938 C 42.480469 44.230469 42.304688 44.015625 42.109375 43.816406 L 40.308594 42.019531 L 45.292969 37.039062 L 58.09375 49.839844 C 59.097656 49.542969 60.125 49.382812 61.171875 49.363281 C 62.21875 49.339844 63.253906 49.457031 64.269531 49.707031 C 65.285156 49.960938 66.25 50.34375 67.167969 50.851562 C 68.082031 51.363281 68.914062 51.984375 69.664062 52.71875 C 70.414062 53.449219 71.054688 54.265625 71.585938 55.171875 C 72.117188 56.074219 72.519531 57.03125 72.796875 58.042969 C 73.074219 59.050781 73.210938 60.082031 73.214844 61.128906 C 73.214844 62.175781 73.078125 63.207031 72.808594 64.21875 Z M 69.710938 58.9375 L 63.628906 52.855469 L 55.320312 55.082031 L 53.09375 63.386719 L 59.175781 69.46875 L 67.484375 67.246094 Z M 72.976562 3.449219 C 73.105469 3.582031 73.183594 3.738281 73.203125 3.921875 C 73.226562 4.109375 73.1875 4.277344 73.089844 4.4375 L 66.125 15.59375 C 65.996094 15.808594 65.804688 15.9375 65.5625 15.980469 L 61.519531 16.742188 L 36.242188 42.019531 L 40.074219 45.851562 C 40.203125 45.980469 40.304688 46.128906 40.371094 46.296875 C 40.441406 46.464844 40.476562 46.636719 40.476562 46.820312 C 40.476562 47 40.441406 47.175781 40.371094 47.34375 C 40.304688 47.511719 40.203125 47.660156 40.074219 47.789062 L 38.6875 49.175781 C 38.507812 49.347656 38.292969 49.449219 38.042969 49.472656 C 37.792969 49.496094 37.5625 49.445312 37.351562 49.3125 C 37.046875 49.140625 36.722656 49.019531 36.378906 48.953125 C 36.035156 48.886719 35.691406 48.878906 35.34375 48.925781 C 35 48.972656 34.667969 49.074219 34.355469 49.226562 C 34.042969 49.382812 33.761719 49.585938 33.515625 49.832031 C 33.265625 50.078125 33.066406 50.359375 32.910156 50.671875 C 32.753906 50.984375 32.65625 51.316406 32.609375 51.664062 C 32.5625 52.007812 32.570312 52.355469 32.636719 52.699219 C 32.703125 53.039062 32.824219 53.363281 32.996094 53.667969 C 33.128906 53.882812 33.179688 54.113281 33.15625 54.359375 C 33.128906 54.609375 33.03125 54.824219 32.859375 55.003906 L 17.703125 70.164062 C 17.257812 70.609375 16.773438 71.007812 16.25 71.359375 C 15.726562 71.707031 15.171875 72.003906 14.59375 72.246094 C 14.011719 72.488281 13.410156 72.667969 12.792969 72.792969 C 12.175781 72.914062 11.550781 72.976562 10.921875 72.976562 C 10.292969 72.976562 9.667969 72.917969 9.050781 72.792969 C 8.433594 72.671875 7.832031 72.488281 7.25 72.25 C 6.667969 72.007812 6.117188 71.710938 5.59375 71.363281 C 5.070312 71.011719 4.585938 70.617188 4.140625 70.171875 C 3.695312 69.726562 3.296875 69.242188 2.949219 68.71875 C 2.597656 68.195312 2.300781 67.640625 2.0625 67.058594 C 1.820312 66.476562 1.640625 65.878906 1.515625 65.257812 C 1.394531 64.640625 1.332031 64.019531 1.332031 63.386719 C 1.332031 62.757812 1.394531 62.136719 1.519531 61.515625 C 1.640625 60.898438 1.824219 60.300781 2.066406 59.71875 C 2.308594 59.136719 2.601562 58.585938 2.953125 58.0625 C 3.304688 57.539062 3.703125 57.054688 4.148438 56.609375 L 19.304688 41.449219 C 19.488281 41.277344 19.703125 41.179688 19.949219 41.15625 C 20.199219 41.128906 20.429688 41.183594 20.640625 41.316406 C 20.945312 41.488281 21.269531 41.609375 21.613281 41.675781 C 21.957031 41.742188 22.300781 41.75 22.648438 41.703125 C 22.996094 41.65625 23.324219 41.554688 23.636719 41.398438 C 23.949219 41.246094 24.230469 41.042969 24.476562 40.796875 C 24.726562 40.546875 24.925781 40.269531 25.082031 39.953125 C 25.238281 39.640625 25.339844 39.3125 25.386719 38.964844 C 25.433594 38.617188 25.421875 38.273438 25.355469 37.929688 C 25.289062 37.585938 25.171875 37.261719 25 36.960938 C 24.867188 36.746094 24.8125 36.515625 24.835938 36.269531 C 24.863281 36.019531 24.960938 35.804688 25.132812 35.621094 L 26.519531 34.234375 C 26.648438 34.105469 26.796875 34.007812 26.964844 33.9375 C 27.132812 33.867188 27.308594 33.832031 27.492188 33.832031 C 27.671875 33.832031 27.847656 33.867188 28.015625 33.9375 C 28.183594 34.007812 28.332031 34.105469 28.460938 34.234375 L 32.292969 38.066406 L 57.570312 12.789062 L 58.328125 8.75 C 58.375 8.503906 58.503906 8.316406 58.714844 8.183594 L 69.875 1.222656 C 70.03125 1.125 70.203125 1.085938 70.386719 1.105469 C 70.570312 1.128906 70.730469 1.203125 70.863281 1.335938 Z M 6.003906 66.046875 L 23.367188 48.683594 L 20.542969 45.859375 L 6.96875 59.433594 C 6.542969 59.859375 6.195312 60.339844 5.925781 60.878906 C 5.65625 61.417969 5.476562 61.984375 5.390625 62.578125 C 5.304688 63.175781 5.3125 63.769531 5.417969 64.363281 C 5.523438 64.957031 5.71875 65.515625 6.003906 66.046875 Z M 28.453125 53.765625 L 25.628906 50.941406 L 8.261719 68.304688 C 8.792969 68.589844 9.355469 68.789062 9.949219 68.890625 C 10.539062 68.996094 11.136719 69.007812 11.730469 68.917969 C 12.328125 68.832031 12.894531 68.652344 13.433594 68.382812 C 13.96875 68.113281 14.453125 67.765625 14.878906 67.339844 Z M 28.453125 53.765625 "/></g></g></svg>