<svg xmlns="http://www.w3.org/2000/svg" xmlns:xlink="http://www.w3.org/1999/xlink" width="100" zoomAndPan="magnify" viewBox="0 0 75 74.999997" height="100" preserveAspectRatio="xMidYMid meet" version="1.2"><defs><clipPath id="47cf17606d"><path d="M 18 5.699219 L 56 5.699219 L 56 66 L 18 66 Z M 18 5.699219 "/></clipPath><clipPath id="a6e858d89a"><path d="M 0.589844 62.707031 L 74.070312 62.707031 L 74.070312 69.007812 L 0.589844 69.007812 Z M 0.589844 62.707031 "/></clipPath></defs><g id="93f0f9c543"><g clip-rule="nonzero" clip-path="url(#47cf17606d)"><path style=" stroke:none;fill-rule:evenodd;fill:#0a0a0a;fill-opacity:1;" d="M 54.695312 65.183594 L 19.96875 65.183594 C 19.332031 65.183594 18.820312 64.667969 18.820312 64.035156 L 18.820312 6.847656 C 18.820312 6.214844 19.332031 5.699219 19.96875 5.699219 L 54.695312 5.699219 C 55.328125 5.699219 55.84375 6.214844 55.84375 6.847656 L 55.84375 64.035156 C 55.84375 64.667969 55.328125 65.183594 54.695312 65.183594 Z M 21.117188 62.886719 L 53.546875 62.886719 L 53.546875 7.996094 L 21.117188 7.996094 L 21.117188 62.886719 "/></g><path style=" stroke:none;fill-rule:evenodd;fill:#0a0a0a;fill-opacity:1;" d="M 30.007812 18.035156 L 24.570312 18.035156 C 23.9375 18.035156 23.421875 17.523438 23.421875 16.886719 L 23.421875 11.453125 C 23.421875 10.816406 23.9375 10.304688 24.570312 10.304688 L 30.007812 10.304688 C 30.640625 10.304688 31.15625 10.816406 31.15625 11.453125 L 31.15625 16.886719 C 31.15625 17.523438 30.640625 18.035156 30.007812 18.035156 Z M 25.71875 15.742188 L 28.859375 15.742188 L 28.859375 12.601562 L 25.71875 12.601562 L 25.71875 15.742188 "/><path style=" stroke:none;fill-rule:evenodd;fill:#0a0a0a;fill-opacity:1;" d="M 40.046875 18.035156 L 34.613281 18.035156 C 33.980469 18.035156 33.464844 17.523438 33.464844 16.890625 L 33.464844 11.453125 C 33.464844 10.816406 33.980469 10.304688 34.613281 10.304688 L 40.046875 10.304688 C 40.683594 10.304688 41.195312 10.816406 41.195312 11.453125 L 41.195312 16.890625 C 41.195312 17.523438 40.683594 18.035156 40.046875 18.035156 Z M 35.761719 15.742188 L 38.902344 15.742188 L 38.902344 12.601562 L 35.761719 12.601562 L 35.761719 15.742188 "/><path style=" stroke:none;fill-rule:evenodd;fill:#0a0a0a;fill-opacity:1;" d="M 40.046875 18.035156 L 34.613281 18.035156 C 33.980469 18.035156 33.464844 17.523438 33.464844 16.890625 L 33.464844 11.453125 C 33.464844 10.816406 33.980469 10.304688 34.613281 10.304688 L 40.046875 10.304688 C 40.683594 10.304688 41.195312 10.816406 41.195312 11.453125 L 41.195312 16.890625 C 41.195312 17.523438 40.683594 18.035156 40.046875 18.035156 Z M 35.761719 15.742188 L 38.902344 15.742188 L 38.902344 12.601562 L 35.761719 12.601562 L 35.761719 15.742188 "/><path style=" stroke:none;fill-rule:evenodd;fill:#0a0a0a;fill-opacity:1;" d="M 50.089844 18.035156 L 44.652344 18.035156 C 44.019531 18.035156 43.503906 17.523438 43.503906 16.886719 L 43.503906 11.453125 C 43.503906 10.816406 44.019531 10.304688 44.652344 10.304688 L 50.089844 10.304688 C 50.722656 10.304688 51.238281 10.816406 51.238281 11.453125 L 51.238281 16.886719 C 51.238281 17.523438 50.722656 18.035156 50.089844 18.035156 Z M 45.800781 15.742188 L 48.941406 15.742188 L 48.941406 12.601562 L 45.800781 12.601562 L 45.800781 15.742188 "/><path style=" stroke:none;fill-rule:evenodd;fill:#0a0a0a;fill-opacity:1;" d="M 30.007812 28.078125 L 24.570312 28.078125 C 23.9375 28.078125 23.421875 27.5625 23.421875 26.929688 L 23.421875 21.492188 C 23.421875 20.859375 23.9375 20.34375 24.570312 20.34375 L 30.007812 20.34375 C 30.640625 20.34375 31.15625 20.859375 31.15625 21.492188 L 31.15625 26.929688 C 31.15625 27.5625 30.640625 28.078125 30.007812 28.078125 Z M 25.71875 25.78125 L 28.859375 25.78125 L 28.859375 22.640625 L 25.71875 22.640625 L 25.71875 25.78125 "/><path style=" stroke:none;fill-rule:evenodd;fill:#0a0a0a;fill-opacity:1;" d="M 40.046875 28.078125 L 34.613281 28.078125 C 33.976562 28.078125 33.464844 27.5625 33.464844 26.929688 L 33.464844 21.492188 C 33.464844 20.859375 33.976562 20.34375 34.613281 20.34375 L 40.046875 20.34375 C 40.683594 20.34375 41.195312 20.859375 41.195312 21.492188 L 41.195312 26.929688 C 41.195312 27.5625 40.683594 28.078125 40.046875 28.078125 Z M 35.761719 25.78125 L 38.898438 25.78125 L 38.898438 22.640625 L 35.761719 22.640625 L 35.761719 25.78125 "/><path style=" stroke:none;fill-rule:evenodd;fill:#0a0a0a;fill-opacity:1;" d="M 40.046875 28.078125 L 34.613281 28.078125 C 33.976562 28.078125 33.464844 27.5625 33.464844 26.929688 L 33.464844 21.492188 C 33.464844 20.859375 33.976562 20.34375 34.613281 20.34375 L 40.046875 20.34375 C 40.683594 20.34375 41.195312 20.859375 41.195312 21.492188 L 41.195312 26.929688 C 41.195312 27.5625 40.683594 28.078125 40.046875 28.078125 Z M 35.761719 25.78125 L 38.898438 25.78125 L 38.898438 22.640625 L 35.761719 22.640625 L 35.761719 25.78125 "/><path style=" stroke:none;fill-rule:evenodd;fill:#0a0a0a;fill-opacity:1;" d="M 50.089844 28.078125 L 44.652344 28.078125 C 44.019531 28.078125 43.503906 27.5625 43.503906 26.929688 L 43.503906 21.492188 C 43.503906 20.859375 44.019531 20.34375 44.652344 20.34375 L 50.089844 20.34375 C 50.722656 20.34375 51.238281 20.859375 51.238281 21.492188 L 51.238281 26.929688 C 51.238281 27.5625 50.722656 28.078125 50.089844 28.078125 Z M 45.800781 25.78125 L 48.941406 25.78125 L 48.941406 22.640625 L 45.800781 22.640625 L 45.800781 25.78125 "/><path style=" stroke:none;fill-rule:evenodd;fill:#0a0a0a;fill-opacity:1;" d="M 30.007812 38.117188 L 24.570312 38.117188 C 23.9375 38.117188 23.421875 37.605469 23.421875 36.96875 L 23.421875 31.53125 C 23.421875 30.898438 23.9375 30.386719 24.570312 30.386719 L 30.007812 30.386719 C 30.640625 30.386719 31.15625 30.898438 31.15625 31.53125 L 31.15625 36.96875 C 31.15625 37.605469 30.640625 38.117188 30.007812 38.117188 Z M 25.71875 35.820312 L 28.859375 35.820312 L 28.859375 32.679688 L 25.71875 32.679688 L 25.71875 35.820312 "/><path style=" stroke:none;fill-rule:evenodd;fill:#0a0a0a;fill-opacity:1;" d="M 40.046875 38.117188 L 34.613281 38.117188 C 33.976562 38.117188 33.464844 37.605469 33.464844 36.96875 L 33.464844 31.53125 C 33.464844 30.898438 33.976562 30.386719 34.613281 30.386719 L 40.046875 30.386719 C 40.683594 30.386719 41.195312 30.898438 41.195312 31.535156 L 41.195312 36.96875 C 41.195312 37.605469 40.683594 38.117188 40.046875 38.117188 Z M 35.761719 35.824219 L 38.902344 35.824219 L 38.902344 32.679688 L 35.761719 32.679688 L 35.761719 35.824219 "/><path style=" stroke:none;fill-rule:evenodd;fill:#0a0a0a;fill-opacity:1;" d="M 40.046875 38.117188 L 34.613281 38.117188 C 33.976562 38.117188 33.464844 37.605469 33.464844 36.96875 L 33.464844 31.53125 C 33.464844 30.898438 33.976562 30.386719 34.613281 30.386719 L 40.046875 30.386719 C 40.683594 30.386719 41.195312 30.898438 41.195312 31.535156 L 41.195312 36.96875 C 41.195312 37.605469 40.683594 38.117188 40.046875 38.117188 Z M 35.761719 35.824219 L 38.902344 35.824219 L 38.902344 32.679688 L 35.761719 32.679688 L 35.761719 35.824219 "/><path style=" stroke:none;fill-rule:evenodd;fill:#0a0a0a;fill-opacity:1;" d="M 50.089844 38.117188 L 44.652344 38.117188 C 44.019531 38.117188 43.503906 37.605469 43.503906 36.96875 L 43.503906 31.53125 C 43.503906 30.898438 44.019531 30.386719 44.652344 30.386719 L 50.089844 30.386719 C 50.722656 30.386719 51.238281 30.898438 51.238281 31.53125 L 51.238281 36.96875 C 51.238281 37.605469 50.722656 38.117188 50.089844 38.117188 Z M 45.800781 35.820312 L 48.941406 35.820312 L 48.941406 32.679688 L 45.800781 32.679688 L 45.800781 35.820312 "/><path style=" stroke:none;fill-rule:evenodd;fill:#0a0a0a;fill-opacity:1;" d="M 69.339844 65.183594 L 54.695312 65.183594 C 54.058594 65.183594 53.546875 64.667969 53.546875 64.035156 L 53.546875 19.265625 C 53.546875 18.632812 54.058594 18.121094 54.695312 18.121094 L 69.339844 18.121094 C 69.972656 18.121094 70.488281 18.632812 70.488281 19.265625 L 70.488281 64.035156 C 70.488281 64.667969 69.972656 65.183594 69.339844 65.183594 Z M 55.84375 62.886719 L 68.191406 62.886719 L 68.191406 20.414062 L 55.84375 20.414062 L 55.84375 62.886719 "/><path style=" stroke:none;fill-rule:evenodd;fill:#0a0a0a;fill-opacity:1;" d="M 64.734375 30.457031 L 59.296875 30.457031 C 58.664062 30.457031 58.148438 29.941406 58.148438 29.308594 L 58.148438 23.871094 C 58.148438 23.238281 58.664062 22.722656 59.296875 22.722656 L 64.734375 22.722656 C 65.367188 22.722656 65.882812 23.238281 65.882812 23.871094 L 65.882812 29.308594 C 65.882812 29.941406 65.367188 30.457031 64.734375 30.457031 Z M 60.445312 28.160156 L 63.585938 28.160156 L 63.585938 25.019531 L 60.445312 25.019531 L 60.445312 28.160156 "/><path style=" stroke:none;fill-rule:evenodd;fill:#0a0a0a;fill-opacity:1;" d="M 64.734375 40.496094 L 59.296875 40.496094 C 58.664062 40.496094 58.148438 39.984375 58.148438 39.347656 L 58.148438 33.914062 C 58.148438 33.277344 58.664062 32.765625 59.296875 32.765625 L 64.734375 32.765625 C 65.367188 32.765625 65.882812 33.277344 65.882812 33.914062 L 65.882812 39.347656 C 65.882812 39.984375 65.367188 40.496094 64.734375 40.496094 Z M 60.445312 38.199219 L 63.585938 38.199219 L 63.585938 35.058594 L 60.445312 35.058594 L 60.445312 38.199219 "/><path style=" stroke:none;fill-rule:evenodd;fill:#0a0a0a;fill-opacity:1;" d="M 64.734375 50.539062 L 59.296875 50.539062 C 58.664062 50.539062 58.148438 50.023438 58.148438 49.390625 L 58.148438 43.953125 C 58.148438 43.320312 58.664062 42.804688 59.296875 42.804688 L 64.734375 42.804688 C 65.367188 42.804688 65.882812 43.320312 65.882812 43.953125 L 65.882812 49.390625 C 65.882812 50.023438 65.367188 50.539062 64.734375 50.539062 Z M 60.445312 48.242188 L 63.585938 48.242188 L 63.585938 45.101562 L 60.445312 45.101562 L 60.445312 48.242188 "/><path style=" stroke:none;fill-rule:evenodd;fill:#0a0a0a;fill-opacity:1;" d="M 64.734375 60.578125 L 59.296875 60.578125 C 58.664062 60.578125 58.148438 60.066406 58.148438 59.429688 L 58.148438 53.996094 C 58.148438 53.359375 58.664062 52.847656 59.296875 52.847656 L 64.734375 52.847656 C 65.367188 52.847656 65.882812 53.359375 65.882812 53.996094 L 65.882812 59.429688 C 65.882812 60.066406 65.367188 60.578125 64.734375 60.578125 Z M 60.445312 58.28125 L 63.585938 58.28125 L 63.585938 55.140625 L 60.445312 55.140625 L 60.445312 58.28125 "/><path style=" stroke:none;fill-rule:evenodd;fill:#0a0a0a;fill-opacity:1;" d="M 19.96875 65.183594 L 5.320312 65.183594 C 4.6875 65.183594 4.175781 64.667969 4.175781 64.035156 L 4.175781 27.871094 C 4.175781 27.464844 4.390625 27.089844 4.742188 26.882812 L 19.386719 18.277344 C 19.742188 18.070312 20.179688 18.066406 20.539062 18.269531 C 20.894531 18.476562 21.117188 18.855469 21.117188 19.265625 L 21.117188 64.035156 C 21.117188 64.667969 20.601562 65.183594 19.96875 65.183594 Z M 6.46875 62.886719 L 18.820312 62.886719 L 18.820312 21.273438 L 6.46875 28.527344 L 6.46875 62.886719 "/><path style=" stroke:none;fill-rule:evenodd;fill:#0a0a0a;fill-opacity:1;" d="M 15.363281 60.578125 L 9.925781 60.578125 C 9.292969 60.578125 8.777344 60.066406 8.777344 59.429688 L 8.777344 53.996094 C 8.777344 53.359375 9.292969 52.847656 9.925781 52.847656 L 15.363281 52.847656 C 15.996094 52.847656 16.511719 53.359375 16.511719 53.996094 L 16.511719 59.429688 C 16.511719 60.066406 15.996094 60.578125 15.363281 60.578125 Z M 11.074219 58.28125 L 14.214844 58.28125 L 14.214844 55.140625 L 11.074219 55.140625 L 11.074219 58.28125 "/><path style=" stroke:none;fill-rule:evenodd;fill:#0a0a0a;fill-opacity:1;" d="M 15.363281 40.496094 L 9.925781 40.496094 C 9.292969 40.496094 8.777344 39.984375 8.777344 39.347656 L 8.777344 33.914062 C 8.777344 33.277344 9.292969 32.765625 9.925781 32.765625 L 15.363281 32.765625 C 15.996094 32.765625 16.511719 33.277344 16.511719 33.914062 L 16.511719 39.347656 C 16.511719 39.984375 15.996094 40.496094 15.363281 40.496094 Z M 11.074219 38.199219 L 14.214844 38.199219 L 14.214844 35.058594 L 11.074219 35.058594 L 11.074219 38.199219 "/><path style=" stroke:none;fill-rule:evenodd;fill:#0a0a0a;fill-opacity:1;" d="M 15.363281 50.539062 L 9.925781 50.539062 C 9.292969 50.539062 8.777344 50.023438 8.777344 49.390625 L 8.777344 43.953125 C 8.777344 43.320312 9.292969 42.804688 9.925781 42.804688 L 15.363281 42.804688 C 15.996094 42.804688 16.511719 43.320312 16.511719 43.953125 L 16.511719 49.390625 C 16.511719 50.023438 15.996094 50.539062 15.363281 50.539062 Z M 11.074219 48.242188 L 14.214844 48.242188 L 14.214844 45.101562 L 11.074219 45.101562 L 11.074219 48.242188 "/><path style=" stroke:none;fill-rule:evenodd;fill:#0a0a0a;fill-opacity:1;" d="M 30.007812 48.160156 L 24.570312 48.160156 C 23.9375 48.160156 23.421875 47.644531 23.421875 47.011719 L 23.421875 41.574219 C 23.421875 40.941406 23.9375 40.425781 24.570312 40.425781 L 30.007812 40.425781 C 30.640625 40.425781 31.15625 40.941406 31.15625 41.574219 L 31.15625 47.011719 C 31.15625 47.644531 30.640625 48.160156 30.007812 48.160156 Z M 25.71875 45.863281 L 28.859375 45.863281 L 28.859375 42.722656 L 25.71875 42.722656 L 25.71875 45.863281 "/><path style=" stroke:none;fill-rule:evenodd;fill:#0a0a0a;fill-opacity:1;" d="M 40.046875 48.160156 L 34.613281 48.160156 C 33.976562 48.160156 33.464844 47.644531 33.464844 47.011719 L 33.464844 41.574219 C 33.464844 40.941406 33.976562 40.425781 34.613281 40.425781 L 40.046875 40.425781 C 40.683594 40.425781 41.195312 40.941406 41.195312 41.574219 L 41.195312 47.011719 C 41.195312 47.644531 40.683594 48.160156 40.046875 48.160156 Z M 35.761719 45.863281 L 38.898438 45.863281 L 38.898438 42.722656 L 35.761719 42.722656 L 35.761719 45.863281 "/><path style=" stroke:none;fill-rule:evenodd;fill:#0a0a0a;fill-opacity:1;" d="M 40.046875 48.160156 L 34.613281 48.160156 C 33.976562 48.160156 33.464844 47.644531 33.464844 47.011719 L 33.464844 41.574219 C 33.464844 40.941406 33.976562 40.425781 34.613281 40.425781 L 40.046875 40.425781 C 40.683594 40.425781 41.195312 40.941406 41.195312 41.574219 L 41.195312 47.011719 C 41.195312 47.644531 40.683594 48.160156 40.046875 48.160156 Z M 35.761719 45.863281 L 38.898438 45.863281 L 38.898438 42.722656 L 35.761719 42.722656 L 35.761719 45.863281 "/><path style=" stroke:none;fill-rule:evenodd;fill:#0a0a0a;fill-opacity:1;" d="M 50.089844 48.160156 L 44.652344 48.160156 C 44.019531 48.160156 43.503906 47.644531 43.503906 47.011719 L 43.503906 41.574219 C 43.503906 40.941406 44.019531 40.425781 44.652344 40.425781 L 50.089844 40.425781 C 50.722656 40.425781 51.238281 40.941406 51.238281 41.574219 L 51.238281 47.011719 C 51.238281 47.644531 50.722656 48.160156 50.089844 48.160156 Z M 45.800781 45.863281 L 48.941406 45.863281 L 48.941406 42.722656 L 45.800781 42.722656 L 45.800781 45.863281 "/><path style=" stroke:none;fill-rule:evenodd;fill:#0a0a0a;fill-opacity:1;" d="M 44.652344 65.183594 L 30.007812 65.183594 C 29.375 65.183594 28.859375 64.667969 28.859375 64.035156 L 28.859375 51.8125 C 28.859375 51.175781 29.375 50.664062 30.007812 50.664062 L 44.652344 50.664062 C 45.285156 50.664062 45.800781 51.175781 45.800781 51.8125 L 45.800781 64.035156 C 45.800781 64.667969 45.285156 65.183594 44.652344 65.183594 Z M 31.15625 62.886719 L 43.503906 62.886719 L 43.503906 52.960938 L 31.15625 52.960938 L 31.15625 62.886719 "/><path style=" stroke:none;fill-rule:evenodd;fill:#0a0a0a;fill-opacity:1;" d="M 37.332031 65.183594 C 36.695312 65.183594 36.183594 64.667969 36.183594 64.035156 L 36.183594 51.8125 C 36.183594 51.175781 36.695312 50.664062 37.332031 50.664062 C 37.964844 50.664062 38.476562 51.175781 38.476562 51.8125 L 38.476562 64.035156 C 38.476562 64.667969 37.964844 65.183594 37.332031 65.183594 "/><g clip-rule="nonzero" clip-path="url(#a6e858d89a)"><path style=" stroke:none;fill-rule:evenodd;fill:#0a0a0a;fill-opacity:1;" d="M 72.921875 69.007812 L 1.738281 69.007812 C 1.105469 69.007812 0.589844 68.496094 0.589844 67.859375 L 0.589844 64.035156 C 0.589844 63.402344 1.105469 62.886719 1.738281 62.886719 L 72.921875 62.886719 C 73.554688 62.886719 74.070312 63.402344 74.070312 64.035156 L 74.070312 67.859375 C 74.070312 68.496094 73.554688 69.007812 72.921875 69.007812 Z M 2.886719 66.710938 L 71.773438 66.710938 L 71.773438 65.183594 L 2.886719 65.183594 L 2.886719 66.710938 "/></g></g></svg>