<svg xmlns="http://www.w3.org/2000/svg" xmlns:xlink="http://www.w3.org/1999/xlink" width="100" zoomAndPan="magnify" viewBox="0 0 75 48.75" height="65" preserveAspectRatio="xMidYMid meet" version="1.2"><defs><clipPath id="c705dc1ea8"><path d="M 2 0 L 73.6875 0 L 73.6875 48.5 L 2 48.5 Z M 2 0 "/></clipPath></defs><g id="1629d76ecf"><path style=" stroke:none;fill-rule:nonzero;fill:#ece8e1;fill-opacity:1;" d="M 28.015625 15.875 L 26.246094 15.875 L 26.246094 14.105469 C 26.246094 13.734375 26.171875 13.378906 26.03125 13.039062 C 25.890625 12.699219 25.6875 12.398438 25.429688 12.136719 C 25.167969 11.875 24.867188 11.671875 24.527344 11.53125 C 24.183594 11.390625 23.828125 11.320312 23.460938 11.320312 L 20.421875 11.320312 C 20.054688 11.320312 19.699219 11.390625 19.359375 11.53125 C 19.015625 11.671875 18.714844 11.875 18.457031 12.136719 C 18.195312 12.398438 17.992188 12.699219 17.851562 13.039062 C 17.710938 13.378906 17.640625 13.734375 17.640625 14.105469 L 17.640625 15.875 L 15.867188 15.875 C 15.5 15.875 15.144531 15.949219 14.800781 16.089844 C 14.460938 16.230469 14.160156 16.429688 13.898438 16.691406 C 13.640625 16.953125 13.4375 17.253906 13.296875 17.59375 C 13.15625 17.9375 13.082031 18.289062 13.082031 18.660156 L 13.082031 21.699219 C 13.082031 22.066406 13.15625 22.421875 13.296875 22.761719 C 13.4375 23.101562 13.640625 23.402344 13.898438 23.664062 C 14.160156 23.925781 14.460938 24.128906 14.800781 24.269531 C 15.144531 24.410156 15.5 24.480469 15.867188 24.480469 L 17.640625 24.480469 L 17.640625 26.253906 C 17.640625 26.621094 17.710938 26.976562 17.851562 27.316406 C 17.992188 27.660156 18.195312 27.960938 18.457031 28.222656 C 18.714844 28.480469 19.015625 28.683594 19.359375 28.824219 C 19.699219 28.964844 20.054688 29.035156 20.421875 29.039062 L 23.460938 29.039062 C 23.828125 29.035156 24.183594 28.964844 24.527344 28.824219 C 24.867188 28.683594 25.167969 28.480469 25.429688 28.222656 C 25.6875 27.960938 25.890625 27.660156 26.03125 27.316406 C 26.171875 26.976562 26.242188 26.621094 26.246094 26.253906 L 26.246094 24.480469 L 28.015625 24.480469 C 28.386719 24.480469 28.742188 24.410156 29.082031 24.269531 C 29.421875 24.128906 29.722656 23.925781 29.984375 23.664062 C 30.246094 23.402344 30.445312 23.101562 30.585938 22.761719 C 30.730469 22.421875 30.800781 22.066406 30.800781 21.699219 L 30.800781 18.660156 C 30.800781 18.289062 30.730469 17.9375 30.585938 17.59375 C 30.445312 17.253906 30.246094 16.953125 29.984375 16.691406 C 29.722656 16.429688 29.421875 16.230469 29.082031 16.089844 C 28.742188 15.949219 28.386719 15.875 28.015625 15.875 Z M 28.269531 21.699219 C 28.269531 21.765625 28.246094 21.828125 28.195312 21.875 C 28.144531 21.925781 28.085938 21.949219 28.015625 21.949219 L 24.980469 21.949219 C 24.8125 21.949219 24.648438 21.980469 24.496094 22.046875 C 24.339844 22.109375 24.203125 22.203125 24.085938 22.320312 C 23.964844 22.441406 23.875 22.578125 23.808594 22.730469 C 23.746094 22.886719 23.714844 23.046875 23.714844 23.214844 L 23.714844 26.253906 C 23.714844 26.324219 23.6875 26.382812 23.640625 26.433594 C 23.589844 26.480469 23.53125 26.507812 23.460938 26.507812 L 20.421875 26.507812 C 20.351562 26.507812 20.292969 26.480469 20.246094 26.433594 C 20.195312 26.382812 20.171875 26.324219 20.171875 26.253906 L 20.171875 23.214844 C 20.171875 23.046875 20.136719 22.886719 20.074219 22.730469 C 20.007812 22.578125 19.917969 22.441406 19.800781 22.320312 C 19.679688 22.203125 19.542969 22.109375 19.390625 22.046875 C 19.234375 21.980469 19.074219 21.949219 18.90625 21.949219 L 15.867188 21.949219 C 15.796875 21.949219 15.738281 21.925781 15.6875 21.875 C 15.640625 21.828125 15.613281 21.765625 15.613281 21.699219 L 15.613281 18.660156 C 15.613281 18.589844 15.640625 18.53125 15.6875 18.480469 C 15.738281 18.429688 15.796875 18.40625 15.867188 18.40625 L 18.90625 18.40625 C 19.074219 18.40625 19.234375 18.375 19.390625 18.3125 C 19.542969 18.246094 19.679688 18.15625 19.800781 18.035156 C 19.917969 17.917969 20.007812 17.78125 20.074219 17.625 C 20.136719 17.472656 20.171875 17.308594 20.171875 17.140625 L 20.171875 14.105469 C 20.171875 14.035156 20.195312 13.972656 20.246094 13.925781 C 20.292969 13.875 20.351562 13.851562 20.421875 13.851562 L 23.460938 13.851562 C 23.53125 13.851562 23.589844 13.875 23.640625 13.925781 C 23.6875 13.972656 23.714844 14.035156 23.714844 14.105469 L 23.714844 17.140625 C 23.714844 17.308594 23.746094 17.472656 23.808594 17.625 C 23.875 17.78125 23.964844 17.917969 24.085938 18.035156 C 24.203125 18.15625 24.339844 18.246094 24.496094 18.3125 C 24.648438 18.375 24.8125 18.40625 24.980469 18.40625 L 28.015625 18.40625 C 28.085938 18.40625 28.144531 18.429688 28.195312 18.480469 C 28.246094 18.53125 28.269531 18.589844 28.269531 18.660156 Z M 28.269531 21.699219 "/><path style=" stroke:none;fill-rule:nonzero;fill:#ece8e1;fill-opacity:1;" d="M 52.695312 23.265625 C 52.417969 23.261719 52.144531 23.285156 51.871094 23.335938 C 51.601562 23.386719 51.335938 23.464844 51.078125 23.566406 C 50.824219 23.667969 50.578125 23.796875 50.347656 23.945312 C 50.113281 24.097656 49.898438 24.269531 49.699219 24.460938 C 49.503906 24.652344 49.324219 24.863281 49.167969 25.089844 C 49.011719 25.316406 48.875 25.558594 48.765625 25.8125 C 48.65625 26.066406 48.570312 26.328125 48.511719 26.597656 C 48.453125 26.867188 48.421875 27.140625 48.417969 27.417969 C 48.414062 27.695312 48.433594 27.96875 48.484375 28.242188 C 48.53125 28.511719 48.609375 28.777344 48.707031 29.035156 C 48.808594 29.292969 48.933594 29.539062 49.082031 29.769531 C 49.230469 30.003906 49.402344 30.21875 49.59375 30.417969 C 49.785156 30.617188 49.992188 30.796875 50.21875 30.957031 C 50.445312 31.113281 50.6875 31.25 50.9375 31.363281 C 51.191406 31.472656 51.453125 31.558594 51.722656 31.621094 C 51.992188 31.679688 52.265625 31.714844 52.542969 31.71875 C 58.101562 31.617188 58.3125 23.503906 52.695312 23.265625 Z M 52.59375 29.191406 C 52.367188 29.183594 52.15625 29.136719 51.949219 29.046875 C 51.746094 28.957031 51.566406 28.832031 51.410156 28.671875 C 51.257812 28.511719 51.136719 28.328125 51.054688 28.121094 C 50.972656 27.914062 50.933594 27.699219 50.933594 27.476562 C 50.9375 27.253906 50.980469 27.039062 51.066406 26.832031 C 51.15625 26.628906 51.277344 26.445312 51.4375 26.289062 C 51.59375 26.132812 51.777344 26.011719 51.984375 25.925781 C 52.191406 25.839844 52.40625 25.796875 52.628906 25.796875 C 52.851562 25.800781 53.0625 25.847656 53.269531 25.9375 C 53.472656 26.027344 53.652344 26.152344 53.808594 26.3125 C 53.960938 26.472656 54.082031 26.65625 54.164062 26.867188 C 54.246094 27.074219 54.285156 27.289062 54.285156 27.511719 C 54.28125 27.734375 54.238281 27.949219 54.152344 28.152344 C 54.0625 28.359375 53.941406 28.539062 53.78125 28.699219 C 53.625 28.855469 53.441406 28.976562 53.234375 29.0625 C 53.03125 29.144531 52.816406 29.1875 52.59375 29.191406 Z M 52.59375 29.191406 "/><path style=" stroke:none;fill-rule:nonzero;fill:#ece8e1;fill-opacity:1;" d="M 45.394531 15.9375 C 39.792969 15.984375 39.695312 24.289062 45.304688 24.367188 C 45.582031 24.367188 45.851562 24.339844 46.121094 24.285156 C 46.390625 24.230469 46.652344 24.152344 46.902344 24.046875 C 47.15625 23.941406 47.398438 23.8125 47.625 23.660156 C 47.855469 23.507812 48.066406 23.335938 48.261719 23.140625 C 48.453125 22.949219 48.628906 22.738281 48.78125 22.511719 C 48.933594 22.285156 49.066406 22.042969 49.171875 21.792969 C 49.277344 21.539062 49.359375 21.277344 49.414062 21.007812 C 49.472656 20.742188 49.5 20.46875 49.503906 20.195312 C 49.507812 19.921875 49.480469 19.648438 49.433594 19.378906 C 49.382812 19.109375 49.304688 18.847656 49.203125 18.59375 C 49.101562 18.339844 48.976562 18.097656 48.828125 17.867188 C 48.679688 17.636719 48.511719 17.421875 48.320312 17.226562 C 48.128906 17.027344 47.921875 16.851562 47.699219 16.695312 C 47.472656 16.535156 47.234375 16.402344 46.984375 16.292969 C 46.734375 16.183594 46.472656 16.097656 46.207031 16.039062 C 45.9375 15.976562 45.667969 15.945312 45.394531 15.9375 Z M 45.269531 21.835938 C 45.046875 21.824219 44.839844 21.773438 44.640625 21.679688 C 44.4375 21.589844 44.265625 21.460938 44.113281 21.300781 C 43.964844 21.140625 43.851562 20.957031 43.773438 20.75 C 43.695312 20.542969 43.65625 20.332031 43.664062 20.109375 C 43.667969 19.890625 43.714844 19.679688 43.804688 19.476562 C 43.894531 19.277344 44.015625 19.097656 44.175781 18.945312 C 44.332031 18.792969 44.511719 18.675781 44.71875 18.589844 C 44.921875 18.507812 45.132812 18.46875 45.355469 18.46875 C 45.582031 18.46875 45.796875 18.515625 46.007812 18.605469 C 46.214844 18.691406 46.398438 18.816406 46.554688 18.980469 C 46.714844 19.144531 46.832031 19.328125 46.914062 19.539062 C 47 19.75 47.035156 19.96875 47.03125 20.195312 C 47.023438 20.421875 46.976562 20.640625 46.882812 20.84375 C 46.789062 21.050781 46.660156 21.230469 46.496094 21.386719 C 46.328125 21.539062 46.140625 21.65625 45.925781 21.734375 C 45.714844 21.8125 45.496094 21.847656 45.269531 21.835938 Z M 45.269531 21.835938 "/><path style=" stroke:none;fill-rule:nonzero;fill:#ece8e1;fill-opacity:1;" d="M 59.984375 15.9375 C 54.394531 16.082031 54.269531 24.234375 59.925781 24.367188 C 65.480469 24.277344 65.484375 16.121094 59.984375 15.9375 Z M 59.886719 21.835938 C 59.664062 21.832031 59.449219 21.78125 59.246094 21.691406 C 59.042969 21.601562 58.867188 21.476562 58.714844 21.316406 C 58.558594 21.15625 58.441406 20.972656 58.359375 20.765625 C 58.28125 20.558594 58.242188 20.34375 58.246094 20.121094 C 58.25 19.902344 58.296875 19.6875 58.382812 19.484375 C 58.472656 19.28125 58.597656 19.101562 58.753906 18.945312 C 58.914062 18.792969 59.097656 18.671875 59.304688 18.589844 C 59.507812 18.507812 59.722656 18.46875 59.945312 18.46875 C 60.167969 18.476562 60.378906 18.523438 60.582031 18.613281 C 60.785156 18.703125 60.964844 18.828125 61.117188 18.988281 C 61.273438 19.148438 61.390625 19.332031 61.46875 19.539062 C 61.550781 19.746094 61.589844 19.960938 61.585938 20.183594 C 61.582031 20.40625 61.535156 20.617188 61.445312 20.820312 C 61.359375 21.023438 61.234375 21.203125 61.074219 21.359375 C 60.917969 21.515625 60.734375 21.632812 60.527344 21.714844 C 60.320312 21.796875 60.109375 21.839844 59.886719 21.835938 Z M 59.886719 21.835938 "/><path style=" stroke:none;fill-rule:nonzero;fill:#ece8e1;fill-opacity:1;" d="M 52.578125 17.117188 C 52.855469 17.113281 53.128906 17.085938 53.398438 17.03125 C 53.671875 16.980469 53.933594 16.898438 54.1875 16.792969 C 54.445312 16.6875 54.6875 16.558594 54.917969 16.40625 C 55.148438 16.253906 55.363281 16.078125 55.558594 15.882812 C 55.753906 15.691406 55.929688 15.476562 56.085938 15.25 C 56.242188 15.019531 56.371094 14.777344 56.480469 14.523438 C 56.589844 14.269531 56.671875 14.007812 56.726562 13.734375 C 56.785156 13.464844 56.816406 13.191406 56.816406 12.914062 C 56.820312 12.640625 56.796875 12.363281 56.75 12.09375 C 56.699219 11.820312 56.621094 11.554688 56.519531 11.300781 C 56.417969 11.042969 56.292969 10.796875 56.144531 10.5625 C 55.996094 10.332031 55.824219 10.117188 55.632812 9.914062 C 55.441406 9.714844 55.230469 9.539062 55.003906 9.378906 C 54.777344 9.21875 54.539062 9.085938 54.285156 8.972656 C 54.035156 8.859375 53.773438 8.773438 53.503906 8.714844 C 53.234375 8.652344 52.960938 8.617188 52.683594 8.609375 C 52.40625 8.613281 52.132812 8.640625 51.863281 8.695312 C 51.589844 8.746094 51.328125 8.828125 51.070312 8.933594 C 50.816406 9.039062 50.574219 9.167969 50.34375 9.320312 C 50.113281 9.472656 49.898438 9.648438 49.703125 9.84375 C 49.503906 10.035156 49.328125 10.25 49.175781 10.476562 C 49.019531 10.707031 48.886719 10.949219 48.78125 11.203125 C 48.671875 11.457031 48.589844 11.71875 48.53125 11.992188 C 48.476562 12.261719 48.445312 12.535156 48.441406 12.8125 C 48.4375 13.085938 48.460938 13.363281 48.511719 13.632812 C 48.5625 13.90625 48.636719 14.171875 48.738281 14.425781 C 48.839844 14.683594 48.96875 14.929688 49.117188 15.164062 C 49.265625 15.394531 49.4375 15.609375 49.628906 15.8125 C 49.820312 16.011719 50.027344 16.1875 50.253906 16.347656 C 50.480469 16.507812 50.722656 16.640625 50.972656 16.753906 C 51.226562 16.867188 51.488281 16.953125 51.757812 17.011719 C 52.027344 17.074219 52.300781 17.109375 52.578125 17.117188 Z M 51.445312 11.648438 C 51.691406 11.414062 51.984375 11.265625 52.316406 11.203125 C 52.652344 11.144531 52.976562 11.179688 53.289062 11.3125 C 53.605469 11.441406 53.855469 11.652344 54.042969 11.933594 C 54.234375 12.214844 54.332031 12.527344 54.332031 12.867188 C 54.324219 13.09375 54.273438 13.308594 54.183594 13.515625 C 54.09375 13.71875 53.96875 13.902344 53.8125 14.0625 C 53.652344 14.21875 53.46875 14.34375 53.265625 14.433594 C 53.058594 14.527344 52.84375 14.574219 52.617188 14.585938 C 52.273438 14.578125 51.960938 14.472656 51.679688 14.277344 C 51.394531 14.082031 51.191406 13.824219 51.0625 13.503906 C 50.933594 13.183594 50.90625 12.855469 50.976562 12.519531 C 51.046875 12.179688 51.203125 11.890625 51.445312 11.648438 Z M 51.445312 11.648438 "/><g clip-rule="nonzero" clip-path="url(#c705dc1ea8)"><path style=" stroke:none;fill-rule:nonzero;fill:#ece8e1;fill-opacity:1;" d="M 72.21875 42.652344 C 74.175781 35.359375 73.203125 28.941406 71.125 20.101562 C 69.054688 11.183594 63.203125 -1.128906 51.625 1.214844 C 46.050781 2.046875 39.425781 5.003906 34.101562 3.488281 C 31.0625 2.71875 27.996094 2.082031 24.976562 1.425781 C 7.730469 -2.34375 3.070312 20.90625 2.371094 34.882812 C 1.941406 44.238281 6.707031 51.992188 16.769531 46.5625 C 19.820312 44.847656 22.609375 42.777344 25.136719 40.355469 C 26.792969 38.71875 28.742188 37.570312 30.976562 36.914062 C 37.605469 35.246094 45.390625 35.441406 50.820312 40.625 C 55.90625 45.753906 68.175781 53.910156 72.21875 42.652344 Z M 62.675781 45.421875 C 55.027344 43.121094 51.03125 34.976562 43.28125 33.980469 C 36.25 32.875 28.933594 33.273438 23.417969 38.496094 C 21.050781 40.773438 18.433594 42.714844 15.574219 44.332031 C -2.039062 53.359375 6.601562 17.476562 10.164062 11.902344 C 16.15625 0.324219 22.832031 3.496094 33.480469 5.941406 C 37.042969 7.007812 41.8125 6.207031 45.878906 5.074219 C 52.398438 3.300781 58.707031 1.890625 63.265625 8.332031 C 69.035156 14.46875 77.054688 49.730469 62.675781 45.421875 Z M 62.675781 45.421875 "/></g></g></svg>