<svg xmlns="http://www.w3.org/2000/svg" xmlns:xlink="http://www.w3.org/1999/xlink" width="100" zoomAndPan="magnify" viewBox="0 0 75 74.999997" height="100" preserveAspectRatio="xMidYMid meet" version="1.2"><defs><clipPath id="3d04a0a6af"><path d="M 48 20 L 71.445312 20 L 71.445312 31 L 48 31 Z M 48 20 "/></clipPath><clipPath id="cfe9f9a946"><path d="M 8 0.460938 L 62 0.460938 L 62 11 L 8 11 Z M 8 0.460938 "/></clipPath><clipPath id="e405ebfc85"><path d="M 3.195312 48 L 35 48 L 35 68 L 3.195312 68 Z M 3.195312 48 "/></clipPath><clipPath id="d14d745745"><path d="M 8 12 L 62 12 L 62 74.710938 L 8 74.710938 Z M 8 12 "/></clipPath></defs><g id="38aa4821d8"><g clip-rule="nonzero" clip-path="url(#3d04a0a6af)"><path style=" stroke:none;fill-rule:nonzero;fill:#0a0a0a;fill-opacity:1;" d="M 48.230469 20.925781 L 71.433594 20.925781 L 71.433594 30.480469 L 48.230469 30.480469 Z M 48.230469 20.925781 "/></g><g clip-rule="nonzero" clip-path="url(#cfe9f9a946)"><path style=" stroke:none;fill-rule:nonzero;fill:#0a0a0a;fill-opacity:1;" d="M 8.652344 3.183594 L 8.652344 10.007812 L 61.878906 10.007812 L 61.878906 3.183594 C 61.878906 1.675781 60.65625 0.457031 59.152344 0.457031 L 11.382812 0.457031 C 9.875 0.457031 8.652344 1.675781 8.652344 3.183594 Z M 48.914062 7.28125 C 47.78125 7.28125 46.867188 6.363281 46.867188 5.234375 C 46.867188 4.101562 47.785156 3.1875 48.914062 3.1875 C 50.042969 3.1875 50.960938 4.101562 50.960938 5.234375 C 50.960938 6.363281 50.042969 7.28125 48.914062 7.28125 Z M 42.089844 7.28125 C 40.957031 7.28125 40.042969 6.363281 40.042969 5.234375 C 40.042969 4.101562 40.960938 3.1875 42.089844 3.1875 C 43.21875 3.1875 44.136719 4.101562 44.136719 5.234375 C 44.136719 6.363281 43.21875 7.28125 42.089844 7.28125 Z M 55.738281 7.28125 C 54.605469 7.28125 53.691406 6.363281 53.691406 5.234375 C 53.691406 4.101562 54.605469 3.1875 55.738281 3.1875 C 56.867188 3.1875 57.785156 4.101562 57.785156 5.234375 C 57.785156 6.363281 56.867188 7.28125 55.738281 7.28125 Z M 55.738281 7.28125 "/></g><g clip-rule="nonzero" clip-path="url(#e405ebfc85)"><path style=" stroke:none;fill-rule:nonzero;fill:#0a0a0a;fill-opacity:1;" d="M 3.195312 48.222656 L 3.195312 67.328125 L 34.582031 67.328125 L 34.582031 48.222656 Z M 31.855469 61.871094 L 26.394531 56.410156 L 18.207031 63.234375 L 12.746094 57.777344 L 5.921875 63.234375 L 5.921875 50.953125 L 31.855469 50.953125 Z M 31.855469 61.871094 "/></g><g clip-rule="nonzero" clip-path="url(#d14d745745)"><path style=" stroke:none;fill-rule:nonzero;fill:#0a0a0a;fill-opacity:1;" d="M 61.878906 18.199219 L 61.878906 12.738281 L 8.652344 12.738281 L 8.652344 45.492188 L 37.3125 45.492188 L 37.3125 70.0625 L 8.652344 70.0625 L 8.652344 71.425781 C 8.652344 72.933594 9.875 74.15625 11.382812 74.15625 L 59.152344 74.15625 C 60.65625 74.15625 61.878906 72.933594 61.878906 71.425781 L 61.878906 33.210938 L 45.503906 33.210938 L 45.503906 18.199219 Z M 29.125 25.023438 L 35.949219 25.023438 C 36.703125 25.023438 37.316406 25.632812 37.316406 26.386719 C 37.316406 27.140625 36.703125 27.753906 35.949219 27.753906 L 29.125 27.753906 C 28.371094 27.753906 27.757812 27.140625 27.757812 26.386719 C 27.757812 25.632812 28.371094 25.023438 29.125 25.023438 Z M 29.125 30.480469 L 35.949219 30.480469 C 36.703125 30.480469 37.316406 31.09375 37.316406 31.847656 C 37.316406 32.601562 36.703125 33.210938 35.949219 33.210938 L 29.125 33.210938 C 28.371094 33.210938 27.757812 32.601562 27.757812 31.847656 C 27.757812 31.09375 28.371094 30.480469 29.125 30.480469 Z M 14.113281 24.339844 C 14.113281 22.453125 15.640625 20.925781 17.523438 20.925781 C 19.410156 20.925781 20.9375 22.453125 20.9375 24.339844 L 20.9375 25.703125 C 20.9375 27.589844 19.410156 29.117188 17.523438 29.117188 C 15.640625 29.117188 14.113281 27.589844 14.113281 25.703125 Z M 22.300781 38.667969 L 12.746094 38.667969 L 12.746094 36.621094 C 12.746094 33.984375 14.886719 31.847656 17.523438 31.847656 C 20.160156 31.847656 22.300781 33.984375 22.300781 36.621094 Z M 49.597656 67.328125 L 41.410156 67.328125 L 41.410156 59.140625 L 49.597656 59.140625 Z M 49.597656 55.046875 L 41.410156 55.046875 L 41.410156 46.859375 L 49.597656 46.859375 Z M 56.421875 64.601562 L 53.691406 64.601562 C 52.9375 64.601562 52.324219 63.988281 52.324219 63.234375 C 52.324219 62.480469 52.9375 61.871094 53.691406 61.871094 L 56.421875 61.871094 C 57.175781 61.871094 57.785156 62.480469 57.785156 63.234375 C 57.785156 63.988281 57.175781 64.601562 56.421875 64.601562 Z M 57.785156 50.953125 C 57.785156 51.707031 57.175781 52.316406 56.421875 52.316406 L 53.691406 52.316406 C 52.9375 52.316406 52.324219 51.707031 52.324219 50.953125 C 52.324219 50.199219 52.9375 49.585938 53.691406 49.585938 L 56.421875 49.585938 C 57.175781 49.585938 57.785156 50.199219 57.785156 50.953125 Z M 53.691406 35.941406 C 54.445312 35.941406 55.058594 36.550781 55.058594 37.304688 C 55.058594 38.058594 54.445312 38.671875 53.691406 38.671875 L 29.125 38.671875 C 28.371094 38.671875 27.757812 38.058594 27.757812 37.304688 C 27.757812 36.550781 28.371094 35.941406 29.125 35.941406 Z M 53.691406 35.941406 "/></g></g></svg>