<svg xmlns="http://www.w3.org/2000/svg" xmlns:xlink="http://www.w3.org/1999/xlink" width="100" zoomAndPan="magnify" viewBox="0 0 75 74.999997" height="100" preserveAspectRatio="xMidYMid meet" version="1.2"><defs><clipPath id="bb6489844e"><path d="M 2.484375 2 L 17 2 L 17 17 L 2.484375 17 Z M 2.484375 2 "/></clipPath><clipPath id="50321fd630"><path d="M 2.484375 1.144531 L 72.234375 1.144531 L 72.234375 73.894531 L 2.484375 73.894531 Z M 2.484375 1.144531 "/></clipPath></defs><g id="a836ebc2c9"><path style=" stroke:none;fill-rule:nonzero;fill:#dadada;fill-opacity:1;" d="M 5.613281 21.484375 L 14.324219 21.484375 C 14.542969 21.484375 14.757812 21.527344 14.960938 21.613281 C 15.167969 21.695312 15.347656 21.816406 15.503906 21.972656 C 15.660156 22.132812 15.78125 22.3125 15.867188 22.515625 C 15.949219 22.722656 15.992188 22.933594 15.992188 23.15625 L 15.992188 71.058594 C 15.992188 71.28125 15.949219 71.492188 15.867188 71.699219 C 15.78125 71.902344 15.660156 72.082031 15.503906 72.242188 C 15.347656 72.398438 15.167969 72.519531 14.960938 72.601562 C 14.757812 72.6875 14.542969 72.730469 14.324219 72.730469 L 5.613281 72.730469 C 5.390625 72.730469 5.179688 72.6875 4.972656 72.601562 C 4.769531 72.519531 4.589844 72.398438 4.433594 72.242188 C 4.277344 72.082031 4.15625 71.902344 4.070312 71.699219 C 3.984375 71.492188 3.941406 71.28125 3.941406 71.058594 L 3.941406 23.15625 C 3.941406 22.933594 3.984375 22.722656 4.070312 22.515625 C 4.15625 22.3125 4.277344 22.132812 4.433594 21.972656 C 4.589844 21.816406 4.769531 21.695312 4.972656 21.613281 C 5.179688 21.527344 5.390625 21.484375 5.613281 21.484375 Z M 5.613281 21.484375 "/><g clip-rule="nonzero" clip-path="url(#bb6489844e)"><path style=" stroke:none;fill-rule:nonzero;fill:#dadada;fill-opacity:1;" d="M 16.984375 9.667969 C 16.96875 5.558594 14.023438 2.582031 9.96875 2.582031 C 5.914062 2.582031 2.855469 5.640625 2.855469 9.695312 C 2.855469 11.582031 3.542969 13.335938 4.792969 14.636719 C 6.078125 15.972656 7.84375 16.710938 9.769531 16.710938 C 11.902344 16.710938 13.808594 15.957031 15.132812 14.585938 C 16.375 13.300781 17.03125 11.566406 16.984375 9.695312 C 16.984375 9.6875 16.984375 9.679688 16.984375 9.667969 Z M 16.984375 9.667969 "/></g><path style=" stroke:none;fill-rule:nonzero;fill:#dadada;fill-opacity:1;" d="M 64.6875 24.855469 C 60.351562 20.976562 55.269531 20.394531 52.625 20.394531 C 48.675781 20.394531 44.910156 21.453125 41.738281 23.449219 C 40.351562 24.320312 39.101562 25.359375 37.980469 26.554688 L 37.761719 23.046875 C 37.75 22.835938 37.695312 22.632812 37.605469 22.441406 C 37.515625 22.246094 37.394531 22.078125 37.238281 21.933594 C 37.082031 21.789062 36.90625 21.675781 36.707031 21.597656 C 36.511719 21.519531 36.304688 21.480469 36.09375 21.480469 L 28.375 21.480469 C 28.144531 21.480469 27.921875 21.527344 27.707031 21.621094 C 27.496094 21.714844 27.308594 21.847656 27.152344 22.015625 C 26.996094 22.1875 26.875 22.382812 26.800781 22.601562 C 26.722656 22.820312 26.695312 23.046875 26.710938 23.277344 C 26.984375 26.933594 27.101562 30.773438 27.101562 36.117188 L 27.101562 71.058594 C 27.101562 71.28125 27.144531 71.492188 27.230469 71.699219 C 27.3125 71.902344 27.433594 72.082031 27.589844 72.242188 C 27.746094 72.398438 27.929688 72.519531 28.132812 72.601562 C 28.335938 72.6875 28.550781 72.730469 28.773438 72.730469 L 37.484375 72.730469 C 37.703125 72.730469 37.917969 72.6875 38.121094 72.601562 C 38.328125 72.519531 38.507812 72.398438 38.664062 72.242188 C 38.820312 72.082031 38.941406 71.902344 39.027344 71.699219 C 39.109375 71.492188 39.152344 71.28125 39.152344 71.058594 L 39.152344 42.257812 C 39.152344 40.902344 39.332031 39.632812 39.644531 38.769531 C 39.65625 38.742188 39.664062 38.714844 39.671875 38.6875 C 40.851562 34.84375 44.425781 30.960938 49.753906 30.960938 C 53.054688 30.960938 55.421875 32.089844 56.996094 34.410156 C 58.417969 36.507812 59.167969 39.632812 59.167969 43.441406 L 59.167969 71.058594 C 59.167969 71.28125 59.210938 71.492188 59.292969 71.699219 C 59.378906 71.902344 59.5 72.082031 59.65625 72.242188 C 59.8125 72.398438 59.996094 72.519531 60.199219 72.601562 C 60.402344 72.6875 60.617188 72.730469 60.839844 72.730469 L 69.546875 72.730469 C 69.769531 72.730469 69.984375 72.6875 70.1875 72.601562 C 70.390625 72.519531 70.574219 72.398438 70.730469 72.242188 C 70.886719 72.082031 71.007812 71.902344 71.089844 71.699219 C 71.175781 71.492188 71.21875 71.28125 71.21875 71.058594 L 71.21875 42.457031 C 71.21875 38.378906 70.601562 34.769531 69.386719 31.71875 C 68.296875 28.976562 66.714844 26.667969 64.6875 24.855469 Z M 64.6875 24.855469 "/><g clip-rule="nonzero" clip-path="url(#50321fd630)"><path style=" stroke:none;fill-rule:nonzero;fill:#dadada;fill-opacity:1;" d="M 80.582031 -21.21875 L -6.507812 -21.21875 C -14.960938 -21.21875 -21.835938 -14.34375 -21.835938 -5.890625 L -21.835938 81.199219 C -21.835938 89.652344 -14.960938 96.53125 -6.507812 96.53125 L 80.582031 96.53125 C 89.035156 96.53125 95.914062 89.652344 95.914062 81.199219 L 95.914062 -5.890625 C 95.914062 -14.34375 89.035156 -21.21875 80.582031 -21.21875 Z M 85.148438 -5.148438 L 85.148438 80.457031 C 85.148438 80.808594 85.113281 81.152344 85.046875 81.492188 C 84.976562 81.835938 84.875 82.167969 84.742188 82.488281 C 84.609375 82.8125 84.445312 83.117188 84.253906 83.40625 C 84.058594 83.695312 83.839844 83.964844 83.59375 84.210938 C 83.347656 84.457031 83.078125 84.675781 82.789062 84.871094 C 82.5 85.0625 82.191406 85.226562 81.871094 85.359375 C 81.550781 85.496094 81.21875 85.59375 80.875 85.664062 C 80.535156 85.730469 80.1875 85.765625 79.839844 85.765625 L -5.765625 85.765625 C -6.113281 85.765625 -6.460938 85.730469 -6.800781 85.664062 C -7.144531 85.59375 -7.472656 85.496094 -7.796875 85.359375 C -8.117188 85.226562 -8.425781 85.0625 -8.714844 84.871094 C -9.003906 84.675781 -9.269531 84.457031 -9.515625 84.210938 C -9.765625 83.964844 -9.984375 83.695312 -10.175781 83.40625 C -10.371094 83.117188 -10.535156 82.8125 -10.667969 82.488281 C -10.800781 82.167969 -10.902344 81.835938 -10.972656 81.492188 C -11.039062 81.152344 -11.074219 80.808594 -11.074219 80.457031 L -11.074219 -5.148438 C -11.074219 -5.496094 -11.039062 -5.839844 -10.972656 -6.183594 C -10.902344 -6.523438 -10.800781 -6.855469 -10.667969 -7.179688 C -10.535156 -7.5 -10.371094 -7.804688 -10.175781 -8.09375 C -9.984375 -8.386719 -9.765625 -8.652344 -9.515625 -8.898438 C -9.269531 -9.144531 -9.003906 -9.367188 -8.714844 -9.558594 C -8.425781 -9.753906 -8.117188 -9.917969 -7.796875 -10.050781 C -7.472656 -10.183594 -7.144531 -10.285156 -6.800781 -10.351562 C -6.460938 -10.421875 -6.113281 -10.457031 -5.765625 -10.457031 L 79.839844 -10.457031 C 80.1875 -10.457031 80.535156 -10.421875 80.875 -10.351562 C 81.21875 -10.285156 81.550781 -10.183594 81.871094 -10.050781 C 82.191406 -9.917969 82.5 -9.753906 82.789062 -9.558594 C 83.078125 -9.367188 83.347656 -9.144531 83.59375 -8.898438 C 83.839844 -8.652344 84.058594 -8.386719 84.253906 -8.09375 C 84.445312 -7.804688 84.609375 -7.5 84.742188 -7.179688 C 84.875 -6.855469 84.976562 -6.523438 85.046875 -6.183594 C 85.113281 -5.839844 85.148438 -5.496094 85.148438 -5.148438 Z M 85.148438 -5.148438 "/></g></g></svg>