<svg xmlns="http://www.w3.org/2000/svg" xmlns:xlink="http://www.w3.org/1999/xlink" width="100" zoomAndPan="magnify" viewBox="0 0 75 74.999997" height="100" preserveAspectRatio="xMidYMid meet" version="1.2"><defs><clipPath id="fa74b0ef64"><path d="M 0.441406 4.839844 L 74.691406 4.839844 L 74.691406 58 L 0.441406 58 Z M 0.441406 4.839844 "/></clipPath><clipPath id="00c62ea883"><path d="M 13 59 L 62 59 L 62 70.089844 L 13 70.089844 Z M 13 59 "/></clipPath></defs><g id="6a87b7b13f"><path style=" stroke:none;fill-rule:nonzero;fill:#ece8e1;fill-opacity:1;" d="M 55.492188 32.230469 C 58.960938 32.230469 62.425781 32.226562 65.894531 32.230469 C 67.179688 32.234375 67.863281 32.753906 67.890625 33.726562 C 67.917969 34.730469 67.171875 35.371094 65.890625 35.371094 C 58.953125 35.382812 52.019531 35.386719 45.089844 35.371094 C 43.511719 35.367188 42.640625 34.191406 43.289062 33.019531 C 43.664062 32.34375 44.28125 32.222656 44.988281 32.226562 C 48.492188 32.238281 51.992188 32.230469 55.492188 32.230469 "/><path style=" stroke:none;fill-rule:nonzero;fill:#ece8e1;fill-opacity:1;" d="M 55.308594 40.96875 C 58.742188 40.96875 62.171875 40.964844 65.601562 40.96875 C 66.851562 40.96875 67.574219 41.527344 67.597656 42.476562 C 67.621094 43.484375 66.871094 44.113281 65.59375 44.113281 C 58.660156 44.121094 51.730469 44.121094 44.796875 44.113281 C 43.523438 44.113281 42.769531 43.46875 42.800781 42.46875 C 42.832031 41.511719 43.542969 40.96875 44.804688 40.96875 C 48.304688 40.964844 51.808594 40.96875 55.308594 40.96875 "/><g clip-rule="nonzero" clip-path="url(#fa74b0ef64)"><path style=" stroke:none;fill-rule:nonzero;fill:#ece8e1;fill-opacity:1;" d="M 4.382812 10.574219 C 4.445312 10.429688 4.496094 10.273438 4.53125 10.105469 C 4.921875 9.234375 5.617188 8.777344 6.539062 8.777344 C 27.167969 8.773438 47.796875 8.773438 68.421875 8.777344 C 69.609375 8.777344 70.539062 9.699219 70.539062 10.875 C 70.542969 24.496094 70.542969 38.121094 70.539062 51.742188 C 70.539062 52.921875 69.609375 53.84375 68.425781 53.84375 C 47.773438 53.847656 27.125 53.847656 6.472656 53.84375 C 5.65625 53.84375 4.90625 53.351562 4.550781 52.582031 C 4.523438 52.46875 4.476562 52.28125 4.382812 52.070312 Z M 68.421875 4.832031 C 47.796875 4.832031 27.167969 4.832031 6.539062 4.832031 C 4.113281 4.832031 2.058594 6.136719 1.007812 8.332031 L 0.441406 8.515625 L 0.441406 53.816406 L 0.902344 54.078125 C 1.867188 56.332031 4.046875 57.789062 6.472656 57.789062 C 16.957031 57.789062 27.445312 57.789062 37.929688 57.789062 C 48.09375 57.789062 58.257812 57.789062 68.425781 57.789062 C 71.761719 57.785156 74.480469 55.074219 74.480469 51.742188 C 74.484375 38.121094 74.484375 24.496094 74.480469 10.875 C 74.480469 7.488281 71.820312 4.835938 68.421875 4.832031 "/></g><g clip-rule="nonzero" clip-path="url(#00c62ea883)"><path style=" stroke:none;fill-rule:nonzero;fill:#ece8e1;fill-opacity:1;" d="M 37.460938 70.058594 C 30.183594 70.058594 22.90625 70.058594 15.628906 70.054688 C 14.523438 70.054688 13.644531 69.320312 13.511719 68.3125 C 13.367188 67.261719 13.992188 66.296875 15.015625 66.015625 C 15.253906 65.953125 15.511719 65.953125 15.761719 65.953125 C 19.183594 65.949219 22.605469 65.9375 26.027344 65.964844 C 26.535156 65.96875 26.671875 65.847656 26.660156 65.335938 C 26.621094 63.691406 26.65625 62.046875 26.636719 60.40625 C 26.628906 60.019531 26.742188 59.917969 27.128906 59.917969 C 34.015625 59.929688 40.90625 59.929688 47.796875 59.917969 C 48.179688 59.917969 48.292969 60.015625 48.285156 60.40625 C 48.265625 62.070312 48.292969 63.738281 48.265625 65.402344 C 48.257812 65.847656 48.382812 65.964844 48.828125 65.960938 C 52.273438 65.941406 55.714844 65.949219 59.160156 65.949219 C 60.507812 65.953125 61.410156 66.757812 61.421875 67.972656 C 61.433594 69.222656 60.535156 70.058594 59.15625 70.058594 C 51.925781 70.058594 44.695312 70.058594 37.460938 70.058594 "/></g><path style=" stroke:none;fill-rule:nonzero;fill:#ece8e1;fill-opacity:1;" d="M 19.304688 43.257812 C 20.132812 43.257812 20.804688 43.925781 20.804688 44.757812 C 20.804688 45.585938 20.132812 46.257812 19.304688 46.257812 C 18.472656 46.257812 17.804688 45.585938 17.804688 44.757812 C 17.804688 43.925781 18.472656 43.257812 19.304688 43.257812 Z M 33.199219 43.257812 C 34.027344 43.257812 34.699219 43.925781 34.699219 44.757812 C 34.699219 45.585938 34.027344 46.257812 33.199219 46.257812 C 32.371094 46.257812 31.699219 45.585938 31.699219 44.757812 C 31.699219 43.925781 32.371094 43.257812 33.199219 43.257812 Z M 39.320312 23.550781 C 37.289062 23.558594 35.257812 23.558594 33.226562 23.558594 L 19.339844 23.558594 C 17.722656 23.558594 16.113281 23.542969 14.5 23.5625 C 14.1875 23.566406 14.105469 23.445312 14.074219 23.183594 C 13.960938 22.316406 13.839844 21.449219 13.71875 20.582031 C 13.453125 18.707031 13.179688 16.828125 12.921875 14.953125 C 12.835938 14.335938 12.765625 13.726562 12.0625 13.472656 C 10.371094 13.472656 8.679688 13.472656 6.992188 13.472656 C 6.605469 13.621094 6.335938 13.886719 6.191406 14.277344 C 6.191406 14.429688 6.191406 14.585938 6.191406 14.742188 C 6.472656 15.351562 6.964844 15.507812 7.605469 15.484375 C 8.625 15.445312 9.648438 15.480469 10.671875 15.46875 C 10.914062 15.464844 10.988281 15.53125 11.015625 15.777344 C 11.109375 16.601562 11.242188 17.425781 11.359375 18.246094 C 11.59375 19.914062 11.828125 21.582031 12.066406 23.25 C 12.265625 24.644531 12.472656 26.035156 12.675781 27.425781 C 12.78125 28.226562 12.886719 29.023438 13 29.820312 C 13.1875 31.117188 13.378906 32.410156 13.570312 33.703125 C 13.621094 34.109375 13.6875 34.515625 13.726562 34.921875 C 13.851562 36.144531 14.265625 37.234375 15.160156 38.109375 C 15.328125 38.273438 15.320312 38.359375 15.15625 38.523438 C 14.554688 39.121094 14.25 39.851562 14.28125 40.707031 C 14.265625 41.863281 14.996094 42.949219 16.09375 43.394531 C 16.355469 43.5 16.449219 43.589844 16.367188 43.914062 C 16.097656 44.972656 16.351562 45.917969 17.109375 46.726562 C 17.574219 47.222656 18.175781 47.460938 18.804688 47.648438 C 19.117188 47.648438 19.425781 47.648438 19.738281 47.648438 C 20.0625 47.515625 20.410156 47.453125 20.722656 47.277344 C 21.90625 46.601562 22.503906 45.285156 22.191406 43.957031 C 22.132812 43.714844 22.136719 43.636719 22.421875 43.636719 C 25 43.648438 27.578125 43.644531 30.15625 43.644531 C 30.324219 43.644531 30.464844 43.617188 30.390625 43.882812 C 29.910156 45.597656 31.070312 47.34375 32.800781 47.601562 C 32.832031 47.605469 32.859375 47.632812 32.886719 47.648438 C 33.175781 47.648438 33.464844 47.648438 33.753906 47.648438 C 33.792969 47.574219 33.867188 47.59375 33.929688 47.582031 C 35.285156 47.265625 36.253906 46.101562 36.289062 44.75 C 36.335938 43.011719 34.988281 41.644531 33.210938 41.644531 C 27.960938 41.640625 22.714844 41.644531 17.464844 41.644531 C 16.671875 41.644531 16.296875 41.285156 16.261719 40.507812 C 16.519531 39.789062 16.726562 39.640625 17.480469 39.640625 C 22.253906 39.640625 27.023438 39.632812 31.792969 39.644531 C 32.65625 39.648438 33.472656 39.535156 34.273438 39.191406 C 35.621094 38.609375 36.503906 37.621094 36.960938 36.253906 C 37.234375 35.4375 37.457031 34.605469 37.707031 33.78125 C 37.734375 33.710938 37.769531 33.644531 37.789062 33.570312 C 38.132812 32.382812 38.476562 31.195312 38.816406 30.007812 C 39.003906 29.347656 39.1875 28.6875 39.375 28.03125 C 39.460938 27.757812 39.546875 27.484375 39.632812 27.210938 C 39.878906 26.417969 40.054688 25.597656 40.363281 24.820312 C 40.363281 24.644531 40.363281 24.464844 40.363281 24.289062 C 40.144531 23.859375 39.851562 23.550781 39.320312 23.550781 "/></g></svg>