<svg xmlns="http://www.w3.org/2000/svg" xmlns:xlink="http://www.w3.org/1999/xlink" width="700" zoomAndPan="magnify" viewBox="0 0 525 374.999991" height="500" preserveAspectRatio="xMidYMid meet" version="1.2"><defs><clipPath id="9f788e5dbc"><path d="M 2.613281 36 L 522.363281 36 L 522.363281 339 L 2.613281 339 Z M 2.613281 36 "/></clipPath></defs><g id="7b84ca67f4"><g clip-rule="nonzero" clip-path="url(#9f788e5dbc)"><path style=" stroke:none;fill-rule:nonzero;fill:#0a0a0a;fill-opacity:1;" d="M 262.488281 281.671875 C 210.59375 281.671875 168.527344 239.585938 168.527344 187.710938 C 168.527344 135.816406 210.59375 93.75 262.488281 93.75 C 314.382812 93.75 356.449219 135.816406 356.449219 187.710938 C 356.449219 239.585938 314.382812 281.671875 262.488281 281.671875 Z M 262.488281 36.945312 C 262.488281 36.945312 119.128906 29.960938 2.613281 187.753906 C 119.128906 345.546875 262.488281 338.5625 262.488281 338.5625 C 262.488281 338.5625 405.84375 345.546875 522.363281 187.753906 C 405.84375 29.960938 262.488281 36.945312 262.488281 36.945312 "/></g><path style=" stroke:none;fill-rule:nonzero;fill:#0a0a0a;fill-opacity:1;" d="M 309.589844 187.753906 C 309.589844 213.761719 288.496094 234.855469 262.488281 234.855469 C 236.480469 234.855469 215.386719 213.761719 215.386719 187.753906 C 215.386719 161.746094 236.480469 140.648438 262.488281 140.648438 C 288.496094 140.648438 309.589844 161.746094 309.589844 187.753906 "/></g></svg>