<svg xmlns="http://www.w3.org/2000/svg" xmlns:xlink="http://www.w3.org/1999/xlink" width="100" zoomAndPan="magnify" viewBox="0 0 75 74.999997" height="100" preserveAspectRatio="xMidYMid meet" version="1.2"><defs><clipPath id="9b8dac1611"><path d="M 0.71875 0.71875 L 16 0.71875 L 16 23 L 0.71875 23 Z M 0.71875 0.71875 "/></clipPath><clipPath id="50233b29a9"><path d="M 0.71875 26 L 16 26 L 16 49 L 0.71875 49 Z M 0.71875 26 "/></clipPath><clipPath id="9b9489d456"><path d="M 0.71875 52 L 16 52 L 16 74.21875 L 0.71875 74.21875 Z M 0.71875 52 "/></clipPath><clipPath id="e5cc94007b"><path d="M 59 0.71875 L 74.21875 0.71875 L 74.21875 23 L 59 23 Z M 59 0.71875 "/></clipPath><clipPath id="819370ec6c"><path d="M 59 26 L 74.21875 26 L 74.21875 49 L 59 49 Z M 59 26 "/></clipPath><clipPath id="aa0cc9727b"><path d="M 59 52 L 74.21875 52 L 74.21875 74.21875 L 59 74.21875 Z M 59 52 "/></clipPath></defs><g id="be8049bb2a"><g clip-rule="nonzero" clip-path="url(#9b8dac1611)"><path style=" stroke:none;fill-rule:nonzero;fill:#0a0a0a;fill-opacity:1;" d="M 15.292969 7.402344 L 8.980469 1.089844 C 8.75 0.863281 8.464844 0.746094 8.175781 0.746094 L 3.011719 0.746094 C 1.75 0.746094 0.71875 1.78125 0.71875 3.042969 L 0.71875 20.253906 C 0.71875 21.515625 1.75 22.550781 3.011719 22.550781 L 13.339844 22.550781 C 14.601562 22.550781 15.636719 21.515625 15.636719 20.253906 L 15.636719 8.207031 C 15.636719 8.148438 15.636719 8.035156 15.636719 7.976562 C 15.578125 7.746094 15.464844 7.574219 15.292969 7.402344 Z M 9.324219 4.648438 L 11.734375 7.058594 C 11.21875 7.058594 9.609375 7.058594 9.324219 7.058594 Z M 13.339844 20.253906 L 3.011719 20.253906 L 3.011719 3.042969 L 7.03125 3.042969 C 7.03125 3.042969 7.03125 8.207031 7.03125 8.207031 C 7.03125 8.835938 7.546875 9.351562 8.175781 9.351562 C 8.292969 9.351562 10.703125 9.351562 13.339844 9.351562 Z M 13.339844 20.253906 "/></g><path style=" stroke:none;fill-rule:nonzero;fill:#0a0a0a;fill-opacity:1;" d="M 6.457031 11.648438 C 5.824219 11.648438 5.308594 12.164062 5.308594 12.796875 C 5.308594 13.425781 5.824219 13.941406 6.457031 13.941406 L 9.898438 13.941406 C 10.53125 13.941406 11.046875 13.425781 11.046875 12.796875 C 11.046875 12.164062 10.53125 11.648438 9.898438 11.648438 Z M 6.457031 11.648438 "/><path style=" stroke:none;fill-rule:nonzero;fill:#0a0a0a;fill-opacity:1;" d="M 9.898438 15.089844 L 6.457031 15.089844 C 5.824219 15.089844 5.308594 15.605469 5.308594 16.238281 C 5.308594 16.871094 5.824219 17.386719 6.457031 17.386719 L 9.898438 17.386719 C 10.53125 17.386719 11.046875 16.871094 11.046875 16.238281 C 11.046875 15.605469 10.53125 15.089844 9.898438 15.089844 Z M 9.898438 15.089844 "/><path style=" stroke:none;fill-rule:nonzero;fill:#0a0a0a;fill-opacity:1;" d="M 24.875 21.632812 C 24.757812 21 24.128906 20.597656 23.496094 20.769531 C 23.210938 20.828125 22.980469 21 22.808594 21.230469 L 19.367188 17.789062 C 18.90625 17.328125 18.21875 17.328125 17.757812 17.789062 C 17.300781 18.246094 17.300781 18.933594 17.757812 19.394531 L 21.203125 22.835938 C 20.972656 23.007812 20.800781 23.238281 20.742188 23.523438 C 20.628906 24.15625 21.03125 24.730469 21.601562 24.902344 C 21.601562 24.902344 24.011719 25.417969 24.011719 25.417969 C 24.816406 25.589844 25.5625 24.84375 25.390625 24.042969 Z M 24.875 21.632812 "/><path style=" stroke:none;fill-rule:nonzero;fill:#0a0a0a;fill-opacity:1;" d="M 24.011719 50.664062 L 21.601562 51.179688 C 20.972656 51.296875 20.570312 51.925781 20.742188 52.558594 C 20.800781 52.84375 20.972656 53.074219 21.203125 53.246094 L 17.757812 56.6875 C 17.300781 57.148438 17.300781 57.835938 17.757812 58.296875 C 18.21875 58.753906 18.90625 58.753906 19.367188 58.296875 L 22.808594 54.851562 C 22.980469 55.082031 23.210938 55.253906 23.496094 55.3125 C 24.070312 55.425781 24.703125 55.023438 24.875 54.453125 C 24.875 54.453125 25.390625 52.042969 25.390625 52.042969 C 25.503906 51.238281 24.816406 50.550781 24.011719 50.664062 Z M 24.011719 50.664062 "/><path style=" stroke:none;fill-rule:nonzero;fill:#0a0a0a;fill-opacity:1;" d="M 44.324219 23.699219 L 30.554688 23.699219 C 28.660156 23.699219 27.109375 25.246094 27.109375 27.140625 L 27.109375 47.796875 C 27.109375 49.6875 28.660156 51.238281 30.554688 51.238281 L 44.324219 51.238281 C 46.21875 51.238281 47.765625 49.6875 47.765625 47.796875 L 47.765625 27.140625 C 47.765625 25.246094 46.21875 23.699219 44.324219 23.699219 Z M 45.472656 47.796875 C 45.472656 48.425781 44.957031 48.941406 44.324219 48.941406 L 30.554688 48.941406 C 29.921875 48.941406 29.40625 48.425781 29.40625 47.796875 L 29.40625 35.171875 L 45.472656 35.171875 Z M 45.472656 32.878906 L 29.40625 32.878906 L 29.40625 27.140625 C 29.40625 26.507812 29.921875 25.992188 30.554688 25.992188 L 44.324219 25.992188 C 44.957031 25.992188 45.472656 26.507812 45.472656 27.140625 Z M 45.472656 32.878906 "/><path style=" stroke:none;fill-rule:nonzero;fill:#0a0a0a;fill-opacity:1;" d="M 33.996094 29.433594 C 33.996094 29.585938 33.96875 29.734375 33.910156 29.875 C 33.851562 30.015625 33.769531 30.140625 33.660156 30.246094 C 33.554688 30.355469 33.429688 30.4375 33.289062 30.496094 C 33.148438 30.554688 33 30.582031 32.847656 30.582031 C 32.695312 30.582031 32.550781 30.554688 32.410156 30.496094 C 32.269531 30.4375 32.144531 30.355469 32.039062 30.246094 C 31.929688 30.140625 31.847656 30.015625 31.789062 29.875 C 31.730469 29.734375 31.703125 29.585938 31.703125 29.433594 C 31.703125 29.28125 31.730469 29.136719 31.789062 28.996094 C 31.847656 28.855469 31.929688 28.730469 32.039062 28.625 C 32.144531 28.515625 32.269531 28.433594 32.410156 28.375 C 32.550781 28.316406 32.695312 28.289062 32.847656 28.289062 C 33 28.289062 33.148438 28.316406 33.289062 28.375 C 33.429688 28.433594 33.554688 28.515625 33.660156 28.625 C 33.769531 28.730469 33.851562 28.855469 33.910156 28.996094 C 33.96875 29.136719 33.996094 29.28125 33.996094 29.433594 Z M 33.996094 29.433594 "/><path style=" stroke:none;fill-rule:nonzero;fill:#0a0a0a;fill-opacity:1;" d="M 42.03125 28.289062 L 37.4375 28.289062 C 36.808594 28.289062 36.292969 28.804688 36.292969 29.433594 C 36.292969 30.066406 36.808594 30.582031 37.4375 30.582031 L 42.03125 30.582031 C 42.660156 30.582031 43.175781 30.066406 43.175781 29.433594 C 43.175781 28.804688 42.660156 28.289062 42.03125 28.289062 Z M 42.03125 28.289062 "/><path style=" stroke:none;fill-rule:nonzero;fill:#0a0a0a;fill-opacity:1;" d="M 32.847656 40.910156 L 42.03125 40.910156 C 42.660156 40.910156 43.175781 40.394531 43.175781 39.761719 C 43.175781 39.132812 42.660156 38.617188 42.03125 38.617188 L 32.847656 38.617188 C 32.21875 38.617188 31.703125 39.132812 31.703125 39.761719 C 31.703125 40.394531 32.21875 40.910156 32.847656 40.910156 Z M 32.847656 40.910156 "/><path style=" stroke:none;fill-rule:nonzero;fill:#0a0a0a;fill-opacity:1;" d="M 32.847656 45.5 L 42.03125 45.5 C 42.660156 45.5 43.175781 44.984375 43.175781 44.351562 C 43.175781 43.722656 42.660156 43.207031 42.03125 43.207031 L 32.847656 43.207031 C 32.21875 43.207031 31.703125 43.722656 31.703125 44.351562 C 31.703125 44.984375 32.21875 45.5 32.847656 45.5 Z M 32.847656 45.5 "/><path style=" stroke:none;fill-rule:nonzero;fill:#0a0a0a;fill-opacity:1;" d="M 20.570312 38.617188 C 20.570312 38.789062 20.628906 39.015625 20.742188 39.1875 C 21.03125 39.707031 21.773438 39.933594 22.292969 39.589844 C 22.292969 39.589844 24.242188 38.441406 24.242188 38.441406 C 24.988281 37.984375 24.988281 36.894531 24.242188 36.433594 L 22.292969 35.289062 C 21.71875 34.941406 21.03125 35.171875 20.742188 35.6875 C 20.628906 35.863281 20.570312 36.089844 20.570312 36.261719 L 19.078125 36.261719 C 18.449219 36.261719 17.929688 36.78125 17.929688 37.410156 C 17.929688 38.042969 18.449219 38.558594 19.078125 38.558594 L 20.570312 38.558594 Z M 20.570312 38.617188 "/><path style=" stroke:none;fill-rule:nonzero;fill:#0a0a0a;fill-opacity:1;" d="M 55.570312 17.730469 L 52.128906 21.171875 C 51.957031 20.941406 51.726562 20.769531 51.4375 20.714844 C 50.808594 20.597656 50.234375 21 50.0625 21.574219 L 49.488281 24.042969 C 49.316406 24.84375 50.0625 25.589844 50.867188 25.417969 C 50.867188 25.417969 53.273438 24.902344 53.273438 24.902344 C 53.90625 24.789062 54.308594 24.15625 54.136719 23.523438 C 54.078125 23.238281 53.90625 23.007812 53.675781 22.835938 L 57.121094 19.394531 C 57.578125 18.933594 57.578125 18.246094 57.121094 17.789062 C 56.71875 17.269531 56.03125 17.269531 55.570312 17.730469 Z M 55.570312 17.730469 "/><path style=" stroke:none;fill-rule:nonzero;fill:#0a0a0a;fill-opacity:1;" d="M 53.734375 53.246094 C 53.964844 53.074219 54.136719 52.84375 54.191406 52.558594 C 54.308594 51.925781 53.90625 51.351562 53.332031 51.179688 L 50.867188 50.664062 C 50.0625 50.492188 49.316406 51.238281 49.488281 52.042969 C 49.488281 52.042969 50.003906 54.453125 50.003906 54.453125 C 50.121094 55.082031 50.75 55.484375 51.382812 55.3125 C 51.667969 55.253906 51.898438 55.082031 52.070312 54.851562 L 55.511719 58.296875 C 55.972656 58.753906 56.71875 58.753906 57.121094 58.296875 C 57.578125 57.835938 57.578125 57.148438 57.121094 56.6875 Z M 53.734375 53.246094 "/><path style=" stroke:none;fill-rule:nonzero;fill:#0a0a0a;fill-opacity:1;" d="M 52.585938 39.589844 C 53.101562 39.878906 53.847656 39.707031 54.136719 39.1875 C 54.25 39.015625 54.308594 38.789062 54.308594 38.617188 L 55.800781 38.617188 C 56.429688 38.617188 56.949219 38.097656 56.949219 37.46875 C 56.949219 36.835938 56.429688 36.320312 55.800781 36.320312 L 54.308594 36.320312 C 54.308594 36.148438 54.25 35.917969 54.136719 35.746094 C 53.792969 35.171875 53.101562 35 52.585938 35.34375 L 50.636719 36.492188 C 49.890625 36.953125 49.890625 38.042969 50.636719 38.5 C 50.636719 38.441406 52.585938 39.589844 52.585938 39.589844 Z M 52.585938 39.589844 "/><g clip-rule="nonzero" clip-path="url(#50233b29a9)"><path style=" stroke:none;fill-rule:nonzero;fill:#0a0a0a;fill-opacity:1;" d="M 15.292969 33.222656 L 8.980469 26.910156 C 8.75 26.679688 8.464844 26.566406 8.175781 26.566406 L 3.011719 26.566406 C 1.75 26.566406 0.71875 27.597656 0.71875 28.863281 L 0.71875 46.074219 C 0.71875 47.335938 1.75 48.371094 3.011719 48.371094 L 13.339844 48.371094 C 14.601562 48.371094 15.636719 47.335938 15.636719 46.074219 L 15.636719 34.023438 C 15.636719 33.96875 15.636719 33.851562 15.636719 33.796875 C 15.578125 33.566406 15.464844 33.394531 15.292969 33.222656 Z M 9.324219 30.46875 L 11.734375 32.878906 C 11.21875 32.878906 9.609375 32.878906 9.324219 32.878906 Z M 13.339844 46.074219 L 3.011719 46.074219 L 3.011719 28.863281 L 7.03125 28.863281 C 7.03125 28.863281 7.03125 34.023438 7.03125 34.023438 C 7.03125 34.65625 7.546875 35.171875 8.175781 35.171875 C 8.292969 35.171875 10.703125 35.171875 13.339844 35.171875 Z M 13.339844 46.074219 "/></g><path style=" stroke:none;fill-rule:nonzero;fill:#0a0a0a;fill-opacity:1;" d="M 6.457031 37.46875 C 5.824219 37.46875 5.308594 37.984375 5.308594 38.617188 C 5.308594 39.246094 5.824219 39.761719 6.457031 39.761719 L 9.898438 39.761719 C 10.53125 39.761719 11.046875 39.246094 11.046875 38.617188 C 11.046875 37.984375 10.53125 37.46875 9.898438 37.46875 Z M 6.457031 37.46875 "/><path style=" stroke:none;fill-rule:nonzero;fill:#0a0a0a;fill-opacity:1;" d="M 9.898438 40.910156 L 6.457031 40.910156 C 5.824219 40.910156 5.308594 41.425781 5.308594 42.058594 C 5.308594 42.6875 5.824219 43.207031 6.457031 43.207031 L 9.898438 43.207031 C 10.53125 43.207031 11.046875 42.6875 11.046875 42.058594 C 11.046875 41.425781 10.53125 40.910156 9.898438 40.910156 Z M 9.898438 40.910156 "/><g clip-rule="nonzero" clip-path="url(#9b9489d456)"><path style=" stroke:none;fill-rule:nonzero;fill:#0a0a0a;fill-opacity:1;" d="M 15.292969 59.042969 L 8.980469 52.730469 C 8.75 52.5 8.464844 52.386719 8.175781 52.386719 L 3.011719 52.386719 C 1.75 52.386719 0.71875 53.417969 0.71875 54.679688 L 0.71875 71.894531 C 0.71875 73.15625 1.75 74.1875 3.011719 74.1875 L 13.339844 74.1875 C 14.601562 74.1875 15.636719 73.15625 15.636719 71.894531 L 15.636719 59.84375 C 15.636719 59.789062 15.636719 59.671875 15.636719 59.617188 C 15.578125 59.386719 15.464844 59.214844 15.292969 59.042969 Z M 9.324219 56.289062 L 11.734375 58.699219 C 11.21875 58.699219 9.609375 58.699219 9.324219 58.699219 Z M 13.339844 71.894531 L 3.011719 71.894531 L 3.011719 54.679688 L 7.03125 54.679688 C 7.03125 54.679688 7.03125 59.84375 7.03125 59.84375 C 7.03125 60.476562 7.546875 60.992188 8.175781 60.992188 C 8.292969 60.992188 10.703125 60.992188 13.339844 60.992188 Z M 13.339844 71.894531 "/></g><path style=" stroke:none;fill-rule:nonzero;fill:#0a0a0a;fill-opacity:1;" d="M 6.457031 63.289062 C 5.824219 63.289062 5.308594 63.804688 5.308594 64.433594 C 5.308594 65.066406 5.824219 65.582031 6.457031 65.582031 L 9.898438 65.582031 C 10.53125 65.582031 11.046875 65.066406 11.046875 64.433594 C 11.046875 63.804688 10.53125 63.289062 9.898438 63.289062 Z M 6.457031 63.289062 "/><path style=" stroke:none;fill-rule:nonzero;fill:#0a0a0a;fill-opacity:1;" d="M 9.898438 66.730469 L 6.457031 66.730469 C 5.824219 66.730469 5.308594 67.246094 5.308594 67.878906 C 5.308594 68.507812 5.824219 69.023438 6.457031 69.023438 L 9.898438 69.023438 C 10.53125 69.023438 11.046875 68.507812 11.046875 67.878906 C 11.046875 67.246094 10.53125 66.730469 9.898438 66.730469 Z M 9.898438 66.730469 "/><g clip-rule="nonzero" clip-path="url(#e5cc94007b)"><path style=" stroke:none;fill-rule:nonzero;fill:#0a0a0a;fill-opacity:1;" d="M 71.867188 0.746094 L 66.703125 0.746094 C 66.414062 0.746094 66.128906 0.863281 65.898438 1.089844 L 59.585938 7.402344 C 59.414062 7.574219 59.300781 7.804688 59.300781 7.976562 C 59.300781 8.035156 59.300781 8.148438 59.300781 8.207031 L 59.300781 20.253906 C 59.300781 21.515625 60.332031 22.550781 61.59375 22.550781 L 71.921875 22.550781 C 73.183594 22.550781 74.21875 21.515625 74.21875 20.253906 L 74.21875 3.042969 C 74.160156 1.78125 73.128906 0.746094 71.867188 0.746094 Z M 65.554688 4.648438 L 65.554688 7.058594 C 65.265625 7.058594 63.660156 7.058594 63.144531 7.058594 Z M 71.867188 20.253906 L 61.539062 20.253906 L 61.539062 9.351562 C 64.121094 9.351562 66.585938 9.351562 66.703125 9.351562 C 67.332031 9.351562 67.847656 8.835938 67.847656 8.207031 C 67.847656 8.207031 67.847656 3.042969 67.847656 3.042969 L 71.867188 3.042969 Z M 71.867188 20.253906 "/></g><path style=" stroke:none;fill-rule:nonzero;fill:#0a0a0a;fill-opacity:1;" d="M 63.832031 12.796875 C 63.832031 13.425781 64.347656 13.941406 64.980469 13.941406 L 68.421875 13.941406 C 69.054688 13.941406 69.570312 13.425781 69.570312 12.796875 C 69.570312 12.164062 69.054688 11.648438 68.421875 11.648438 L 64.980469 11.648438 C 64.347656 11.648438 63.832031 12.164062 63.832031 12.796875 Z M 63.832031 12.796875 "/><path style=" stroke:none;fill-rule:nonzero;fill:#0a0a0a;fill-opacity:1;" d="M 68.421875 15.089844 L 64.980469 15.089844 C 64.347656 15.089844 63.832031 15.605469 63.832031 16.238281 C 63.832031 16.871094 64.347656 17.386719 64.980469 17.386719 L 68.421875 17.386719 C 69.054688 17.386719 69.570312 16.871094 69.570312 16.238281 C 69.570312 15.605469 69.054688 15.089844 68.421875 15.089844 Z M 68.421875 15.089844 "/><g clip-rule="nonzero" clip-path="url(#819370ec6c)"><path style=" stroke:none;fill-rule:nonzero;fill:#0a0a0a;fill-opacity:1;" d="M 71.867188 26.566406 L 66.703125 26.566406 C 66.414062 26.566406 66.128906 26.679688 65.898438 26.910156 L 59.585938 33.222656 C 59.414062 33.394531 59.300781 33.625 59.300781 33.796875 C 59.300781 33.851562 59.300781 33.96875 59.300781 34.023438 L 59.300781 46.074219 C 59.300781 47.335938 60.332031 48.371094 61.59375 48.371094 L 71.921875 48.371094 C 73.183594 48.371094 74.21875 47.335938 74.21875 46.074219 L 74.21875 28.863281 C 74.160156 27.597656 73.128906 26.566406 71.867188 26.566406 Z M 65.554688 30.46875 L 65.554688 32.878906 C 65.265625 32.878906 63.660156 32.878906 63.144531 32.878906 Z M 71.867188 46.074219 L 61.539062 46.074219 L 61.539062 35.171875 C 64.121094 35.171875 66.585938 35.171875 66.703125 35.171875 C 67.332031 35.171875 67.847656 34.65625 67.847656 34.023438 C 67.847656 34.023438 67.847656 28.863281 67.847656 28.863281 L 71.867188 28.863281 Z M 71.867188 46.074219 "/></g><path style=" stroke:none;fill-rule:nonzero;fill:#0a0a0a;fill-opacity:1;" d="M 63.832031 38.617188 C 63.832031 39.246094 64.347656 39.761719 64.980469 39.761719 L 68.421875 39.761719 C 69.054688 39.761719 69.570312 39.246094 69.570312 38.617188 C 69.570312 37.984375 69.054688 37.46875 68.421875 37.46875 L 64.980469 37.46875 C 64.347656 37.46875 63.832031 37.984375 63.832031 38.617188 Z M 63.832031 38.617188 "/><path style=" stroke:none;fill-rule:nonzero;fill:#0a0a0a;fill-opacity:1;" d="M 68.421875 40.910156 L 64.980469 40.910156 C 64.347656 40.910156 63.832031 41.425781 63.832031 42.058594 C 63.832031 42.6875 64.347656 43.207031 64.980469 43.207031 L 68.421875 43.207031 C 69.054688 43.207031 69.570312 42.6875 69.570312 42.058594 C 69.570312 41.425781 69.054688 40.910156 68.421875 40.910156 Z M 68.421875 40.910156 "/><g clip-rule="nonzero" clip-path="url(#aa0cc9727b)"><path style=" stroke:none;fill-rule:nonzero;fill:#0a0a0a;fill-opacity:1;" d="M 71.867188 52.386719 L 66.703125 52.386719 C 66.414062 52.386719 66.128906 52.5 65.898438 52.730469 L 59.585938 59.042969 C 59.414062 59.214844 59.300781 59.441406 59.300781 59.617188 C 59.300781 59.671875 59.300781 59.789062 59.300781 59.84375 L 59.300781 71.894531 C 59.300781 73.15625 60.332031 74.1875 61.59375 74.1875 L 71.921875 74.1875 C 73.183594 74.1875 74.21875 73.15625 74.21875 71.894531 L 74.21875 54.679688 C 74.160156 53.417969 73.128906 52.386719 71.867188 52.386719 Z M 65.554688 56.289062 L 65.554688 58.699219 C 65.265625 58.699219 63.660156 58.699219 63.144531 58.699219 Z M 71.867188 71.894531 L 61.539062 71.894531 L 61.539062 60.992188 C 64.121094 60.992188 66.585938 60.992188 66.703125 60.992188 C 67.332031 60.992188 67.847656 60.476562 67.847656 59.84375 C 67.847656 59.84375 67.847656 54.679688 67.847656 54.679688 L 71.867188 54.679688 Z M 71.867188 71.894531 "/></g><path style=" stroke:none;fill-rule:nonzero;fill:#0a0a0a;fill-opacity:1;" d="M 63.832031 64.433594 C 63.832031 65.066406 64.347656 65.582031 64.980469 65.582031 L 68.421875 65.582031 C 69.054688 65.582031 69.570312 65.066406 69.570312 64.433594 C 69.570312 63.804688 69.054688 63.289062 68.421875 63.289062 L 64.980469 63.289062 C 64.347656 63.289062 63.832031 63.804688 63.832031 64.433594 Z M 63.832031 64.433594 "/><path style=" stroke:none;fill-rule:nonzero;fill:#0a0a0a;fill-opacity:1;" d="M 68.421875 66.730469 L 64.980469 66.730469 C 64.347656 66.730469 63.832031 67.246094 63.832031 67.878906 C 63.832031 68.507812 64.347656 69.023438 64.980469 69.023438 L 68.421875 69.023438 C 69.054688 69.023438 69.570312 68.507812 69.570312 67.878906 C 69.570312 67.246094 69.054688 66.730469 68.421875 66.730469 Z M 68.421875 66.730469 "/></g></svg>