<svg xmlns="http://www.w3.org/2000/svg" xmlns:xlink="http://www.w3.org/1999/xlink" width="100" zoomAndPan="magnify" viewBox="0 0 75 74.999997" height="100" preserveAspectRatio="xMidYMid meet" version="1.2"><defs><clipPath id="86ab19b657"><path d="M 6.167969 1 L 69 1 L 69 74.195312 L 6.167969 74.195312 Z M 6.167969 1 "/></clipPath></defs><g id="6d57d70f54"><g clip-rule="nonzero" clip-path="url(#86ab19b657)"><path style=" stroke:none;fill-rule:evenodd;fill:#ece8e1;fill-opacity:1;" d="M 59.730469 26.550781 L 63.511719 25.710938 C 63.652344 25.679688 63.792969 25.746094 63.851562 25.875 L 67.304688 33.167969 C 67.398438 33.359375 67.644531 33.402344 67.796875 33.253906 L 68.613281 32.433594 C 68.6875 32.359375 68.71875 32.257812 68.699219 32.15625 L 66.519531 21.660156 C 66.488281 21.507812 66.34375 21.40625 66.191406 21.421875 L 59.277344 22.144531 C 59.175781 22.15625 59.113281 22.261719 59.152344 22.355469 C 59.703125 23.625 59.835938 25.035156 59.550781 26.371094 C 59.527344 26.476562 59.621094 26.574219 59.730469 26.550781 Z M 20.804688 74.195312 L 44.433594 74.195312 C 45.230469 74.195312 45.882812 73.542969 45.882812 72.746094 L 45.882812 70.652344 C 45.882812 69.855469 45.230469 69.203125 44.433594 69.203125 L 20.804688 69.203125 C 20.003906 69.203125 19.355469 69.855469 19.355469 70.652344 L 19.355469 72.746094 C 19.355469 73.542969 20.003906 74.195312 20.804688 74.195312 Z M 24.839844 66.925781 L 24.839844 60.941406 C 24.839844 56.664062 28.339844 53.160156 32.617188 53.160156 C 36.898438 53.160156 40.398438 56.664062 40.398438 60.941406 L 40.398438 66.925781 C 40.398438 67.011719 40.332031 67.078125 40.246094 67.078125 L 24.988281 67.078125 C 24.90625 67.078125 24.839844 67.011719 24.839844 66.925781 Z M 27.78125 60.941406 C 27.78125 63.605469 29.957031 65.777344 32.617188 65.777344 C 35.28125 65.777344 37.457031 63.605469 37.457031 60.941406 C 37.457031 58.277344 35.28125 56.105469 32.617188 56.105469 C 29.957031 56.105469 27.78125 58.277344 27.78125 60.941406 Z M 29.90625 60.941406 C 29.90625 62.433594 31.128906 63.65625 32.617188 63.65625 C 34.109375 63.65625 35.332031 62.433594 35.332031 60.941406 C 35.332031 59.453125 34.109375 58.226562 32.617188 58.226562 C 31.128906 58.226562 29.90625 59.453125 29.90625 60.941406 Z M 9.226562 22.945312 C 12.265625 19.90625 17.195312 19.90625 20.234375 22.945312 C 23.273438 25.984375 23.273438 30.914062 20.234375 33.953125 C 17.195312 36.992188 12.265625 36.992188 9.226562 33.953125 C 6.1875 30.914062 6.1875 25.984375 9.226562 22.945312 Z M 11.417969 25.132812 C 9.59375 26.957031 9.59375 29.941406 11.417969 31.761719 C 13.238281 33.585938 16.222656 33.585938 18.042969 31.761719 C 19.867188 29.941406 19.867188 26.957031 18.042969 25.132812 C 16.222656 23.3125 13.238281 23.3125 11.417969 25.132812 Z M 12.917969 26.636719 C 11.921875 27.632812 11.921875 29.265625 12.917969 30.261719 C 13.914062 31.257812 15.546875 31.257812 16.542969 30.261719 C 17.539062 29.265625 17.539062 27.632812 16.542969 26.636719 C 15.546875 25.640625 13.914062 25.640625 12.917969 26.636719 Z M 30.019531 3.367188 C 32.691406 0.691406 37.03125 0.691406 39.707031 3.367188 C 42.382812 6.042969 42.382812 10.382812 39.707031 13.058594 C 37.03125 15.730469 32.691406 15.730469 30.019531 13.058594 C 27.34375 10.382812 27.34375 6.042969 30.019531 3.367188 Z M 31.855469 5.207031 C 30.203125 6.855469 30.203125 9.566406 31.855469 11.21875 C 33.507812 12.871094 36.21875 12.871094 37.867188 11.21875 C 39.519531 9.566406 39.519531 6.855469 37.867188 5.207031 C 36.21875 3.554688 33.507812 3.554688 31.855469 5.207031 Z M 33.355469 6.707031 C 32.53125 7.535156 32.53125 8.890625 33.355469 9.71875 C 34.183594 10.542969 35.539062 10.542969 36.367188 9.71875 C 37.195312 8.890625 37.195312 7.535156 36.367188 6.707031 C 35.539062 5.878906 34.183594 5.878906 33.355469 6.707031 Z M 49.972656 21.832031 C 51.710938 20.089844 54.53125 20.089844 56.269531 21.832031 C 58.007812 23.570312 58.007812 26.390625 56.269531 28.128906 C 54.53125 29.867188 51.710938 29.867188 49.972656 28.128906 C 48.230469 26.390625 48.230469 23.570312 49.972656 21.832031 Z M 54.691406 31.589844 L 53.851562 35.371094 C 53.820312 35.511719 53.886719 35.652344 54.015625 35.710938 L 61.308594 39.164062 C 61.5 39.257812 61.542969 39.503906 61.394531 39.65625 L 60.574219 40.472656 C 60.5 40.546875 60.398438 40.578125 60.296875 40.558594 L 49.800781 38.378906 C 49.648438 38.347656 49.546875 38.203125 49.5625 38.050781 L 50.285156 31.136719 C 50.296875 31.035156 50.402344 30.972656 50.496094 31.011719 C 51.765625 31.5625 53.175781 31.695312 54.511719 31.410156 C 54.621094 31.386719 54.714844 31.480469 54.691406 31.589844 Z M 35.066406 51.070312 L 23.050781 34.199219 C 22.988281 34.113281 22.863281 34.113281 22.800781 34.199219 C 20.988281 36.738281 18.105469 38.277344 14.972656 38.355469 C 14.863281 38.355469 14.792969 38.46875 14.839844 38.566406 L 23.257812 57.007812 C 23.3125 57.125 23.480469 57.125 23.535156 57.003906 C 25.457031 52.597656 30.257812 50.195312 34.910156 51.304688 C 35.042969 51.339844 35.148438 51.183594 35.066406 51.070312 Z M 24.445312 25.527344 L 31.644531 16.804688 C 31.710938 16.726562 31.679688 16.605469 31.582031 16.566406 C 29.1875 15.628906 27.296875 13.6875 26.421875 11.269531 C 26.386719 11.167969 26.265625 11.136719 26.183594 11.203125 L 17.214844 18.605469 C 17.117188 18.6875 17.152344 18.839844 17.269531 18.871094 C 20.550781 19.738281 23.167969 22.238281 24.183594 25.476562 C 24.21875 25.589844 24.367188 25.621094 24.445312 25.527344 Z M 39.167969 16.328125 L 46.773438 22.601562 C 46.851562 22.667969 46.972656 22.636719 47.007812 22.542969 C 47.675781 20.871094 49.011719 19.535156 50.683594 18.867188 C 50.78125 18.832031 50.808594 18.710938 50.746094 18.632812 L 43.847656 10.273438 C 43.765625 10.179688 43.613281 10.214844 43.582031 10.335938 C 42.988281 12.78125 41.390625 14.867188 39.191406 16.078125 C 39.097656 16.128906 39.085938 16.257812 39.167969 16.328125 Z M 39.167969 16.328125 "/></g></g></svg>