<svg xmlns="http://www.w3.org/2000/svg" xmlns:xlink="http://www.w3.org/1999/xlink" width="100" zoomAndPan="magnify" viewBox="0 0 75 74.999997" height="100" preserveAspectRatio="xMidYMid meet" version="1.2"><defs><clipPath id="4a4614b9b9"><path d="M 0.71875 3.523438 L 74.21875 3.523438 L 74.21875 71.773438 L 0.71875 71.773438 Z M 0.71875 3.523438 "/></clipPath></defs><g id="5fc02d254e"><g clip-rule="nonzero" clip-path="url(#4a4614b9b9)"><path style=" stroke:none;fill-rule:nonzero;fill:#dadada;fill-opacity:1;" d="M 40.246094 3.523438 C 21.5 3.523438 6.304688 18.714844 6.304688 37.460938 C 6.300781 41.621094 7.039062 45.644531 8.515625 49.535156 L 0.964844 63.699219 C 0.855469 63.902344 0.808594 64.121094 0.824219 64.355469 C 0.839844 64.585938 0.914062 64.796875 1.050781 64.984375 C 1.1875 65.175781 1.363281 65.3125 1.578125 65.402344 C 1.792969 65.488281 2.015625 65.515625 2.242188 65.476562 L 17.746094 62.871094 C 19.28125 64.238281 20.929688 65.453125 22.691406 66.515625 C 24.449219 67.582031 26.289062 68.476562 28.210938 69.207031 C 30.132812 69.933594 32.105469 70.484375 34.128906 70.851562 C 36.152344 71.222656 38.191406 71.402344 40.246094 71.402344 C 58.988281 71.402344 74.183594 56.207031 74.183594 37.460938 C 74.183594 18.730469 58.972656 3.523438 40.246094 3.523438 Z M 40.347656 62.550781 C 38.707031 62.558594 37.082031 62.40625 35.472656 62.097656 C 33.863281 61.785156 32.296875 61.320312 30.78125 60.703125 C 29.261719 60.085938 27.816406 59.324219 26.449219 58.421875 C 25.082031 57.519531 23.8125 56.492188 22.644531 55.339844 L 13.359375 57.019531 C 13.132812 57.054688 12.914062 57.03125 12.699219 56.945312 C 12.484375 56.859375 12.3125 56.722656 12.175781 56.539062 C 12.039062 56.355469 11.960938 56.148438 11.941406 55.917969 C 11.917969 55.6875 11.960938 55.472656 12.066406 55.265625 L 16.753906 46.289062 C 15.652344 43.351562 15.117188 40.3125 15.160156 37.171875 C 15.3125 23.394531 26.46875 12.371094 40.246094 12.371094 C 54.101562 12.371094 65.332031 23.605469 65.332031 37.460938 C 65.332031 51.304688 54.191406 62.496094 40.347656 62.550781 Z M 40.347656 62.550781 "/></g><path style=" stroke:none;fill-rule:nonzero;fill:#dadada;fill-opacity:1;" d="M 36.699219 29 L 35.601562 24.375 C 35.539062 24.113281 35.453125 23.859375 35.335938 23.613281 C 35.21875 23.367188 35.078125 23.136719 34.914062 22.921875 C 34.746094 22.707031 34.5625 22.511719 34.355469 22.335938 C 34.148438 22.15625 33.925781 22.003906 33.6875 21.875 C 33.449219 21.746094 33.199219 21.644531 32.941406 21.566406 C 32.679688 21.492188 32.414062 21.441406 32.144531 21.421875 C 31.871094 21.402344 31.601562 21.410156 31.335938 21.445312 C 31.066406 21.484375 30.804688 21.546875 30.546875 21.640625 L 28.023438 22.546875 C 27.609375 22.695312 27.234375 22.910156 26.894531 23.183594 C 26.554688 23.460938 26.273438 23.785156 26.042969 24.160156 C 25.816406 24.53125 25.652344 24.929688 25.5625 25.359375 C 25.46875 25.785156 25.449219 26.21875 25.503906 26.652344 C 26.382812 33.804688 30.4375 51.109375 49.070312 54.910156 C 49.441406 54.984375 49.816406 55.003906 50.191406 54.972656 C 50.566406 54.9375 50.929688 54.851562 51.28125 54.710938 C 51.628906 54.570312 51.953125 54.382812 52.25 54.144531 C 52.542969 53.910156 52.796875 53.636719 53.011719 53.328125 L 54.464844 51.230469 C 54.753906 50.8125 54.953125 50.351562 55.0625 49.851562 C 55.167969 49.351562 55.175781 48.851562 55.085938 48.347656 C 54.996094 47.847656 54.808594 47.378906 54.535156 46.949219 C 54.257812 46.519531 53.910156 46.160156 53.488281 45.871094 C 53.480469 45.863281 53.472656 45.859375 53.464844 45.851562 L 50.277344 43.683594 C 49.933594 43.449219 49.558594 43.273438 49.15625 43.160156 C 48.757812 43.046875 48.347656 43 47.929688 43.019531 C 47.511719 43.039062 47.109375 43.125 46.71875 43.273438 C 46.332031 43.425781 45.976562 43.632812 45.652344 43.898438 C 45.335938 44.164062 44.980469 44.371094 44.59375 44.519531 C 44.207031 44.671875 43.808594 44.757812 43.394531 44.777344 C 42.980469 44.800781 42.570312 44.753906 42.171875 44.644531 C 41.773438 44.53125 41.402344 44.363281 41.054688 44.128906 C 39.117188 42.824219 36.496094 40.660156 34.789062 37.65625 C 34.597656 37.320312 34.460938 36.960938 34.375 36.585938 C 34.292969 36.207031 34.265625 35.824219 34.292969 35.4375 C 34.324219 35.050781 34.410156 34.679688 34.554688 34.316406 C 34.695312 33.957031 34.890625 33.625 35.132812 33.324219 L 35.953125 32.304688 C 36.324219 31.839844 36.578125 31.320312 36.707031 30.738281 C 36.839844 30.160156 36.835938 29.582031 36.699219 29 Z M 36.699219 29 "/></g></svg>